<svg width="80" height="80" viewBox="0 0 80 80" fill="none" xmlns="http://www.w3.org/2000/svg">
<path d="M23.75 77.5C24.375 77.5 25 78.125 25 78.75C25 79.5312 24.375 80 23.75 80H6.25C2.65625 80 0 77.3438 0 73.75V56.25C0 55.625 0.46875 55 1.25 55C1.875 55 2.5 55.625 2.5 56.25V73.75C2.5 75.9375 4.0625 77.5 6.25 77.5H23.75ZM1.25 25C0.46875 25 0 24.5312 0 23.75V6.25C0 2.8125 2.65625 0 6.25 0H23.75C24.375 0 25 0.625 25 1.25C25 2.03125 24.375 2.5 23.75 2.5H6.25C4.0625 2.5 2.5 4.21875 2.5 6.25V23.75C2.5 24.5312 1.875 25 1.25 25ZM73.75 0C77.1875 0 80 2.8125 80 6.25V23.75C80 24.5312 79.375 25 78.75 25C77.9688 25 77.5 24.5312 77.5 23.75V6.25C77.5 4.21875 75.7812 2.5 73.75 2.5H56.25C55.4688 2.5 55 2.03125 55 1.25C55 0.625 55.4688 0 56.25 0H73.75ZM78.75 55C79.375 55 80 55.625 80 56.25V73.75C80 77.3438 77.1875 80 73.75 80H56.25C55.4688 80 55 79.5312 55 78.75C55 78.125 55.4688 77.5 56.25 77.5H73.75C75.7812 77.5 77.5 75.9375 77.5 73.75V56.25C77.5 55.625 77.9688 55 78.75 55ZM65 40C65 53.9062 53.75 65 40 65C26.0938 65 15 53.9062 15 40C15 26.25 26.0938 15 40 15C53.75 15 65 26.25 65 40ZM40 62.5C52.3438 62.5 62.5 52.5 62.5 40C62.5 27.6562 52.3438 17.5 40 17.5C27.5 17.5 17.5 27.6562 17.5 40C17.5 52.5 27.5 62.5 40 62.5ZM50.1562 47.9688C50.625 47.5 51.4062 47.5 51.875 47.9688C52.5 48.2812 52.5 49.2188 52.0312 49.6875C48.9062 53.125 44.5312 55 40 55C35.3125 55 30.9375 53.125 27.8125 49.6875C27.3438 49.2188 27.3438 48.2812 27.9688 47.9688C28.4375 47.5 29.2188 47.5 29.6875 47.9688C32.3438 50.9375 36.0938 52.5 40 52.5C43.9062 52.5 47.5 50.9375 50.1562 47.9688ZM32.5 37.5C31.0938 37.5 30 36.4062 30 35C30 33.75 31.0938 32.5 32.5 32.5C33.75 32.5 35 33.75 35 35C35 36.4062 33.75 37.5 32.5 37.5ZM47.5 37.5C46.0938 37.5 45 36.4062 45 35C45 33.75 46.0938 32.5 47.5 32.5C48.75 32.5 50 33.75 50 35C50 36.4062 48.75 37.5 47.5 37.5Z" fill="#357937"/>
</svg>
