<svg width="81" height="81" viewBox="0 0 81 81" fill="none" xmlns="http://www.w3.org/2000/svg">
<path d="M40.501 27.3457C48.9385 27.502 55.8135 34.377 55.8135 42.502C55.8135 50.627 55.3447 59.0645 53.9385 66.877C53.7822 68.127 52.6885 68.9082 51.4385 68.9082C51.2822 68.9082 51.2822 68.9082 51.126 68.9082C49.7197 68.5957 48.7822 67.3457 49.0947 66.0957C50.501 58.4395 50.8135 50.627 50.8135 42.8145C50.8135 37.1895 46.2822 32.502 40.501 32.3457C39.4072 32.3457 35.6572 32.502 32.8447 35.3145C30.9697 37.1895 30.0322 39.6895 30.1885 42.1895C30.1885 50.3145 29.5635 58.5957 27.8447 66.5645C27.5322 67.9707 26.2822 68.752 24.876 68.5957C23.626 68.4395 22.6885 67.0332 23.001 65.627C24.4072 58.127 25.1885 50.1582 25.0322 42.3457C24.876 38.4395 26.5947 34.5332 29.251 31.877C32.2197 28.9082 35.9697 27.502 40.501 27.3457ZM40.3447 40.7832C41.751 40.7832 43.001 41.877 43.001 43.2832C43.1572 55.3145 41.5947 66.877 38.4697 78.4395L38.1572 79.0645C37.8447 80.1582 36.751 80.7832 35.8135 80.7832C33.626 80.7832 33.1572 78.752 33.4697 77.6582L33.626 77.0332C36.751 65.9395 38.1572 54.8457 38.001 43.4395C38.001 42.0332 39.0947 40.9395 40.3447 40.7832ZM18.001 24.2207C18.9385 23.127 20.501 22.9707 21.5947 23.9082C22.6885 24.8457 22.8447 26.4082 21.9072 27.3457C18.626 31.4082 17.0635 36.252 17.0635 41.4082C17.2197 47.9707 16.5947 54.377 15.501 60.7832C15.3447 61.877 14.251 62.8145 13.001 62.8145C12.8447 62.8145 12.5322 62.8145 12.5322 62.8145C11.2822 62.502 10.3447 61.252 10.6572 59.8457C11.751 53.9082 12.2197 47.6582 12.0635 41.4082C12.0635 35.1582 14.0947 29.0645 18.001 24.2207ZM80.3447 40.3145C80.501 41.5645 80.501 42.8145 80.501 44.0645C80.1885 45.4707 79.251 46.5645 77.8447 46.5645C76.4385 46.5645 75.3447 45.4707 75.501 44.0645C75.501 42.8145 75.501 41.7207 75.3447 40.4707C75.3447 38.2832 75.1885 35.7832 74.5635 33.752C74.251 32.3457 75.1885 31.0957 76.5947 30.7832C77.8447 30.4707 79.251 31.4082 79.5635 32.6582C80.0322 35.1582 80.3447 37.8145 80.3447 40.3145ZM39.876 0.939453C53.1572 1.0957 65.6572 7.6582 73.1572 18.4395C74.0947 19.6895 73.7822 21.4082 72.6885 22.0332C71.4385 22.8145 69.876 22.502 69.0947 21.4082C62.376 11.877 51.4385 6.0957 39.876 5.93945C30.3447 5.7832 21.4385 9.2207 15.0322 15.7832C8.62598 22.0332 5.34473 30.3145 5.34473 39.2207C5.34473 40.4707 5.34473 41.7207 5.34473 42.9707C5.34473 44.377 4.25098 45.4707 3.00098 45.4707H2.84473C1.43848 45.4707 0.344727 44.2207 0.500977 42.8145C0.500977 41.7207 0.500977 40.4707 0.500977 39.377C0.344727 29.0645 4.25098 19.5332 11.4385 12.1895C18.9385 4.68945 28.9385 0.626953 39.876 0.939453ZM40.0322 14.2207C55.6572 14.377 68.626 26.877 68.626 42.3457C68.7822 48.752 68.4697 55.1582 67.6885 61.5645C67.5322 62.9707 66.4385 63.752 65.3447 63.752C65.1885 63.752 65.0322 63.752 65.0322 63.752C63.7822 63.5957 62.8447 62.3457 63.001 60.9395C63.626 54.8457 63.9385 48.5957 63.7822 42.3457C63.626 29.8457 53.001 19.5332 40.0322 19.2207C38.001 19.0645 36.126 19.377 34.251 19.8457C32.8447 20.1582 31.4385 19.2207 31.126 17.9707C30.9697 16.5645 31.751 15.1582 33.001 14.8457C35.3447 14.377 37.6885 14.0645 40.0322 14.2207Z" fill="#357937"/>
</svg>
