<svg width="20" height="21" viewBox="0 0 20 21" fill="none" xmlns="http://www.w3.org/2000/svg">
<path d="M10 11C7.22656 11 5 8.77344 5 6C5 3.26562 7.22656 1 10 1C12.7344 1 15 3.26562 15 6C15 8.77344 12.7344 11 10 11ZM10 2.25C7.92969 2.25 6.25 3.96875 6.25 6C6.25 8.07031 7.92969 9.75 10 9.75C12.0312 9.75 13.75 8.07031 13.75 6C13.75 3.96875 12.0312 2.25 10 2.25ZM11.9531 12.875C15.7031 12.875 18.75 15.9219 18.75 19.6719C18.75 20.4141 18.125 21 17.3828 21H2.57812C1.83594 21 1.25 20.4141 1.25 19.6719C1.25 15.9219 4.25781 12.875 8.00781 12.875H11.9531ZM17.3828 19.75C17.4219 19.75 17.5 19.7109 17.5 19.6719C17.5 16.625 15 14.125 11.9531 14.125H8.00781C4.96094 14.125 2.5 16.625 2.5 19.6719C2.5 19.7109 2.53906 19.75 2.57812 19.75H17.3828Z" fill="#222222"/>
</svg>
