<svg width="24" height="21" viewBox="0 0 24 21" fill="none" xmlns="http://www.w3.org/2000/svg">
<path d="M3.875 1C4.14844 1 4.38281 1.23438 4.46094 1.50781L4.65625 2.25H21.8828C22.7031 2.25 23.3281 3.07031 23.0938 3.85156L20.9844 11.3516C20.8281 11.8984 20.3594 12.25 19.7734 12.25H6.92188L7.46875 14.75H20.125C20.4375 14.75 20.75 15.0625 20.75 15.375C20.75 15.7266 20.4375 16 20.125 16H7C6.6875 16 6.45312 15.8047 6.375 15.5312L3.36719 2.25H1.375C1.02344 2.25 0.75 1.97656 0.75 1.625C0.75 1.3125 1.02344 1 1.375 1H3.875ZM4.92969 3.5L6.60938 11H19.7734L21.8828 3.5H4.92969ZM5.75 18.8125C5.75 17.6406 6.72656 16.625 7.9375 16.625C9.10938 16.625 10.125 17.6406 10.125 18.8125C10.125 20.0234 9.10938 21 7.9375 21C6.72656 21 5.75 20.0234 5.75 18.8125ZM7.9375 19.75C8.44531 19.75 8.875 19.3594 8.875 18.8125C8.875 18.3047 8.44531 17.875 7.9375 17.875C7.39062 17.875 7 18.3047 7 18.8125C7 19.3594 7.39062 19.75 7.9375 19.75ZM20.75 18.8125C20.75 20.0234 19.7344 21 18.5625 21C17.3516 21 16.375 20.0234 16.375 18.8125C16.375 17.6406 17.3516 16.625 18.5625 16.625C19.7344 16.625 20.75 17.6406 20.75 18.8125ZM18.5625 17.875C18.0156 17.875 17.625 18.3047 17.625 18.8125C17.625 19.3594 18.0156 19.75 18.5625 19.75C19.0703 19.75 19.5 19.3594 19.5 18.8125C19.5 18.3047 19.0703 17.875 18.5625 17.875Z" fill="#222222"/>
</svg>
