<svg width="23" height="21" viewBox="0 0 23 21" fill="none" xmlns="http://www.w3.org/2000/svg">
<path d="M4.16064 1C4.59033 1 4.98096 1.35156 5.05908 1.78125L5.13721 2.25H21.5435C22.3638 2.25 22.9888 3.07031 22.7544 3.85156L20.645 11.3516C20.4888 11.8984 20.02 12.25 19.4341 12.25H7.05127L7.40283 14.125H19.4731C19.981 14.125 20.4106 14.5547 20.4106 15.0625C20.4106 15.6094 19.981 16 19.4731 16H6.62158C6.19189 16 5.80127 15.6875 5.72314 15.2578L3.37939 2.875H1.34814C0.80127 2.875 0.410645 2.48438 0.410645 1.9375C0.410645 1.42969 0.80127 1 1.34814 1H4.16064ZM5.41064 19.125C5.41064 18.1094 6.23096 17.25 7.28564 17.25C8.30127 17.25 9.16064 18.1094 9.16064 19.125C9.16064 20.1797 8.30127 21 7.28564 21C6.23096 21 5.41064 20.1797 5.41064 19.125ZM20.4106 19.125C20.4106 20.1797 19.5513 21 18.5356 21C17.481 21 16.6606 20.1797 16.6606 19.125C16.6606 18.1094 17.481 17.25 18.5356 17.25C19.5513 17.25 20.4106 18.1094 20.4106 19.125Z" fill="#222222"/>
</svg>
