<svg width="24" height="21" viewBox="0 0 24 21" fill="none" xmlns="http://www.w3.org/2000/svg">
<path d="M23.2109 11C23.2109 11.7031 22.625 12.25 21.9609 12.25H20.7109L20.75 18.5C20.75 18.6172 20.75 18.7344 20.75 18.8125V19.4375C20.75 20.3359 20.0469 21 19.1875 21H18.5625C18.4844 21 18.4453 21 18.4062 21C18.3672 21 18.2891 21 18.25 21H16.0625C15.1641 21 14.5 20.3359 14.5 19.4375V16C14.5 15.3359 13.9141 14.75 13.25 14.75H10.75C10.0469 14.75 9.5 15.3359 9.5 16V19.4375C9.5 20.3359 8.79688 21 7.9375 21H5.75C5.67188 21 5.63281 21 5.55469 21C5.51562 21 5.47656 21 5.4375 21H4.8125C3.91406 21 3.25 20.3359 3.25 19.4375V15.0625C3.25 15.0625 3.25 15.0234 3.25 14.9844V12.25H2C1.29688 12.25 0.75 11.7031 0.75 11C0.75 10.6484 0.867188 10.3359 1.14062 10.0625L11.1406 1.35156C11.4141 1.07812 11.7266 1 12 1C12.2734 1 12.5859 1.11719 12.8203 1.3125L22.7812 10.0625C23.0938 10.3359 23.25 10.6484 23.2109 11Z" fill="#222222"/>
</svg>
