<svg width="24" height="21" viewBox="0 0 24 21" fill="none" xmlns="http://www.w3.org/2000/svg">
<path d="M23.0156 10.5312C23.2891 10.7656 23.2891 11.1562 23.0547 11.4297C22.8594 11.7031 22.4688 11.7031 22.1953 11.4688L20.75 10.1797V17.875C20.75 19.6328 19.3438 21 17.625 21H6.375C4.61719 21 3.25 19.6328 3.25 17.875V10.1797L1.76562 11.4688C1.49219 11.7031 1.10156 11.7031 0.90625 11.4297C0.671875 11.1562 0.671875 10.7656 0.945312 10.5312L11.5703 1.19531C11.8047 0.960938 12.1562 0.960938 12.3906 1.19531L23.0156 10.5312ZM6.375 19.75H8.875V13.5C8.875 12.8359 9.42188 12.25 10.125 12.25H13.875C14.5391 12.25 15.125 12.8359 15.125 13.5V19.75H17.625C18.6406 19.75 19.5 18.9297 19.5 17.875V9.08594L12 2.48438L4.5 9.08594V17.875C4.5 18.9297 5.32031 19.75 6.375 19.75ZM10.125 19.75H13.875V13.5H10.125V19.75Z" fill="#222222"/>
</svg>
