<svg width="33" height="32" viewBox="0 0 33 32" fill="none" xmlns="http://www.w3.org/2000/svg">
<path d="M15.1875 20.75C14.8125 21.125 14.125 21.125 13.75 20.75L9.75 16.75C9.375 16.375 9.375 15.6875 9.75 15.3125C10.125 14.9375 10.8125 14.9375 11.1875 15.3125L14.5 18.625L21.75 11.3125C22.125 10.9375 22.8125 10.9375 23.1875 11.3125C23.5625 11.6875 23.5625 12.375 23.1875 12.75L15.1875 20.75ZM32.5 16C32.5 24.875 25.3125 32 16.5 32C7.625 32 0.5 24.875 0.5 16C0.5 7.1875 7.625 0 16.5 0C25.3125 0 32.5 7.1875 32.5 16ZM16.5 2C8.75 2 2.5 8.3125 2.5 16C2.5 23.75 8.75 30 16.5 30C24.1875 30 30.5 23.75 30.5 16C30.5 8.3125 24.1875 2 16.5 2Z" fill="#357937"/>
</svg>
