<svg width="20" height="21" viewBox="0 0 20 21" fill="none" xmlns="http://www.w3.org/2000/svg">
<path d="M15 13C15.25 13 15.5 12.7812 15.5 12.5V6.125L13.375 4H9C8.71875 4 8.5 4.25 8.5 4.5V12.5C8.5 12.7812 8.71875 13 9 13H15ZM9 14.5C7.875 14.5 7 13.625 7 12.5V4.5C7 3.40625 7.875 2.5 9 2.5H13.375C13.75 2.5 14.1562 2.6875 14.4375 2.96875L16.5312 5.0625C16.8125 5.34375 17 5.75 17 6.125V12.5C17 13.625 16.0938 14.5 15 14.5H9ZM5 6.5H6V8H5C4.71875 8 4.5 8.25 4.5 8.5V16.5C4.5 16.7812 4.71875 17 5 17H11C11.25 17 11.5 16.7812 11.5 16.5V15.5H13V16.5C13 17.625 12.0938 18.5 11 18.5H5C3.875 18.5 3 17.625 3 16.5V8.5C3 7.40625 3.875 6.5 5 6.5Z" fill="#222222"/>
</svg>
