<svg width="21" height="20" viewBox="0 0 21 20" fill="none" xmlns="http://www.w3.org/2000/svg">
<path d="M4.5 2C4.84375 2 5.15625 2.28125 5.21875 2.625L6.53125 9.5H16.4062L17.75 4.5H16.25C15.8125 4.5 15.5 4.1875 15.5 3.75C15.5 3.34375 15.8125 3 16.25 3H18.75C18.9688 3 19.1875 3.125 19.3438 3.3125C19.4688 3.5 19.5312 3.75 19.4688 3.96875L17.7188 10.4688C17.625 10.7812 17.3125 11 17 11H6.8125L7.09375 12.5H16.75C17.1562 12.5 17.5 12.8438 17.5 13.25C17.5 13.6875 17.1562 14 16.75 14H6.46875C6.125 14 5.8125 13.75 5.75 13.4062L3.875 3.5H2.25C1.8125 3.5 1.5 3.1875 1.5 2.75C1.5 2.34375 1.8125 2 2.25 2H4.5ZM5.5 16.5C5.5 15.6875 6.15625 15 7 15C7.8125 15 8.5 15.6875 8.5 16.5C8.5 17.3438 7.8125 18 7 18C6.15625 18 5.5 17.3438 5.5 16.5ZM17.5 16.5C17.5 17.3438 16.8125 18 16 18C15.1562 18 14.5 17.3438 14.5 16.5C14.5 15.6875 15.1562 15 16 15C16.8125 15 17.5 15.6875 17.5 16.5ZM8.75 6C8.75 5.59375 9.0625 5.25 9.5 5.25H10.75V4C10.75 3.59375 11.0625 3.25 11.5 3.25C11.9062 3.25 12.25 3.59375 12.25 4V5.25H13.5C13.9062 5.25 14.25 5.59375 14.25 6C14.25 6.4375 13.9062 6.75 13.5 6.75H12.25V8C12.25 8.4375 11.9062 8.75 11.5 8.75C11.0625 8.75 10.75 8.4375 10.75 8V6.75H9.5C9.0625 6.75 8.75 6.4375 8.75 6Z" fill="#222222"/>
</svg>
