<svg width="48" height="45" viewBox="0 0 48 45" fill="none" xmlns="http://www.w3.org/2000/svg">
<path d="M15.875 1C16.1484 1 16.3828 1.23438 16.4609 1.50781L16.6562 2.25H33.8828C34.7031 2.25 35.3281 3.07031 35.0938 3.85156L32.9844 11.3516C32.8281 11.8984 32.3594 12.25 31.7734 12.25H18.9219L19.4688 14.75H32.125C32.4375 14.75 32.75 15.0625 32.75 15.375C32.75 15.7266 32.4375 16 32.125 16H19C18.6875 16 18.4531 15.8047 18.375 15.5312L15.3672 2.25H13.375C13.0234 2.25 12.75 1.97656 12.75 1.625C12.75 1.3125 13.0234 1 13.375 1H15.875ZM16.9297 3.5L18.6094 11H31.7734L33.8828 3.5H16.9297ZM17.75 18.8125C17.75 17.6406 18.7266 16.625 19.9375 16.625C21.1094 16.625 22.125 17.6406 22.125 18.8125C22.125 20.0234 21.1094 21 19.9375 21C18.7266 21 17.75 20.0234 17.75 18.8125ZM19.9375 19.75C20.4453 19.75 20.875 19.3594 20.875 18.8125C20.875 18.3047 20.4453 17.875 19.9375 17.875C19.3906 17.875 19 18.3047 19 18.8125C19 19.3594 19.3906 19.75 19.9375 19.75ZM32.75 18.8125C32.75 20.0234 31.7344 21 30.5625 21C29.3516 21 28.375 20.0234 28.375 18.8125C28.375 17.6406 29.3516 16.625 30.5625 16.625C31.7344 16.625 32.75 17.6406 32.75 18.8125ZM30.5625 17.875C30.0156 17.875 29.625 18.3047 29.625 18.8125C29.625 19.3594 30.0156 19.75 30.5625 19.75C31.0703 19.75 31.5 19.3594 31.5 18.8125C31.5 18.3047 31.0703 17.875 30.5625 17.875Z" fill="#222222"/>
<path d="M19.8963 32.5H18.8394C18.5838 31.2898 17.544 30.642 16.3849 30.642C14.7997 30.642 13.5554 31.8693 13.5554 34.1364C13.5554 36.4034 14.7997 37.6307 16.3849 37.6307C17.544 37.6307 18.5838 36.983 18.8394 35.7727H19.8963C19.5724 37.5625 18.1406 38.6193 16.3849 38.6193C14.1519 38.6193 12.5326 36.8977 12.5326 34.1364C12.5326 31.375 14.1519 29.6534 16.3849 29.6534C18.1406 29.6534 19.5724 30.7102 19.8963 32.5ZM23.2738 38.6534C22.0295 38.6534 21.0408 37.9205 21.0408 36.642C21.0408 35.142 22.3661 34.8736 23.5806 34.7159C24.7738 34.5625 25.2681 34.6051 25.2681 34.1193V34.0852C25.2681 33.2457 24.8121 32.7557 23.8874 32.7557C22.9286 32.7557 22.4045 33.267 22.1829 33.7443L21.2283 33.4034C21.7397 32.2102 22.8647 31.8693 23.8533 31.8693C24.6886 31.8693 26.2738 32.108 26.2738 34.1875V38.5H25.2681V37.6136H25.217C25.0124 38.0398 24.4158 38.6534 23.2738 38.6534ZM23.4272 37.75C24.6204 37.75 25.2681 36.9489 25.2681 36.1307V35.2102C25.0976 35.4148 23.9556 35.5341 23.5295 35.5852C22.7454 35.6875 22.0465 35.9261 22.0465 36.6932C22.0465 37.392 22.6261 37.75 23.4272 37.75ZM27.9894 38.5V31.9545H28.961V32.9432H29.0291C29.2678 32.2955 29.9496 31.8523 30.7337 31.8523C30.8828 31.8523 31.147 31.8608 31.2621 31.8693V32.892C31.1939 32.875 30.9169 32.8239 30.6485 32.8239C29.6939 32.8239 28.995 33.4716 28.995 34.358V38.5H27.9894ZM35.591 31.9545V32.8068H34.1932V36.625C34.1932 37.4773 34.6194 37.6136 35.0625 37.6136C35.2841 37.6136 35.4205 37.5795 35.5057 37.5625L35.7103 38.4659C35.5739 38.517 35.3353 38.5852 34.9603 38.5852C34.108 38.5852 33.1875 38.0398 33.1875 36.8977V32.8068H32.1989V31.9545H33.1875V30.3864H34.1932V31.9545H35.591Z" fill="#222222"/>
</svg>
