<svg width="37" height="32" viewBox="0 0 37 32" fill="none" xmlns="http://www.w3.org/2000/svg">
<path d="M5 0C5.4375 0 5.8125 0.375 5.9375 0.8125L6.25 2H33.8125C35.125 2 36.125 3.3125 35.75 4.5625L32.375 16.5625C32.125 17.4375 31.375 18 30.4375 18H9.875L10.75 22H31C31.5 22 32 22.5 32 23C32 23.5625 31.5 24 31 24H10C9.5 24 9.125 23.6875 9 23.25L4.1875 2H1C0.4375 2 0 1.5625 0 1C0 0.5 0.4375 0 1 0H5ZM6.6875 4L9.375 16H30.4375L33.8125 4H6.6875ZM8 28.5C8 26.625 9.5625 25 11.5 25C13.375 25 15 26.625 15 28.5C15 30.4375 13.375 32 11.5 32C9.5625 32 8 30.4375 8 28.5ZM11.5 30C12.3125 30 13 29.375 13 28.5C13 27.6875 12.3125 27 11.5 27C10.625 27 10 27.6875 10 28.5C10 29.375 10.625 30 11.5 30ZM32 28.5C32 30.4375 30.375 32 28.5 32C26.5625 32 25 30.4375 25 28.5C25 26.625 26.5625 25 28.5 25C30.375 25 32 26.625 32 28.5ZM28.5 27C27.625 27 27 27.6875 27 28.5C27 29.375 27.625 30 28.5 30C29.3125 30 30 29.375 30 28.5C30 27.6875 29.3125 27 28.5 27Z" fill="#A6A6A6"/>
</svg>
