<svg width="41" height="34" viewBox="0 0 41 34" fill="none" xmlns="http://www.w3.org/2000/svg">
<path d="M40.0625 31.25C40.5 31.5625 40.625 32.1875 40.25 32.625C39.9375 33.0625 39.3125 33.125 38.875 32.8125L0.875 2.8125C0.4375 2.5 0.3125 1.875 0.6875 1.4375C1 1 1.625 0.875 2.0625 1.25L40.0625 31.25ZM40.5 23C40.5 24.4375 40.125 25.75 39.4375 26.9375L37.875 25.6875C38.25 24.875 38.5 24 38.5 23C38.5 20.75 37.1875 18.75 35.25 17.75C34.4375 17.25 34 16.3125 34.25 15.375C34.375 14.9375 34.5 14.5 34.5 14C34.5 11.25 32.25 9 29.5 9C28.6875 9 28 9.1875 27.3125 9.5C26.4375 9.9375 25.375 9.625 24.8125 8.875C23.1875 6.5625 20.5 5 17.5 5C15.875 5 14.4375 5.4375 13.125 6.125L11.4375 4.8125C13.1875 3.6875 15.25 3 17.5 3C21.1875 3 24.5 4.875 26.5 7.6875C27.375 7.25 28.375 7 29.5 7C33.3125 7 36.5 10.1875 36.5 14C36.5 14.6875 36.375 15.3125 36.1875 15.9375C38.75 17.3125 40.5 19.9375 40.5 23ZM6.8125 11.3125L8.5625 12.75C8.5 13 8.5 13.3125 8.5 13.625C8.4375 14.4375 7.9375 15.125 7.125 15.4375C4.4375 16.375 2.5 19 2.5 22C2.5 25.875 5.625 29 9.5 29H29.1875L31.75 31H9.5C4.5 31 0.5 27 0.5 22C0.5 18.125 3 14.75 6.5 13.5625C6.5 12.75 6.625 12.0625 6.8125 11.3125Z" fill="#C02626"/>
</svg>
