<svg width="20" height="20" viewBox="0 0 20 20" fill="none" xmlns="http://www.w3.org/2000/svg">
<path d="M7.5 3C7.75 3 8 3.25 8 3.5C8 3.78125 7.75 4 7.5 4L4 4V7.5C4 7.78125 3.75 8 3.5 8C3.21875 8 3 7.78125 3 7.5L3 3.5C3 3.25 3.21875 3 3.5 3L7.5 3ZM3 12.5C3 12.25 3.21875 12 3.5 12C3.75 12 4 12.25 4 12.5L4 16H7.5C7.75 16 8 16.25 8 16.5C8 16.7812 7.75 17 7.5 17H3.5C3.21875 17 3 16.7812 3 16.5V12.5ZM16.5 3C16.75 3 17 3.25 17 3.5V7.5C17 7.78125 16.75 8 16.5 8C16.2188 8 16 7.78125 16 7.5V4H12.5C12.2188 4 12 3.78125 12 3.5C12 3.25 12.2188 3 12.5 3H16.5ZM16 12.5C16 12.25 16.2188 12 16.5 12C16.75 12 17 12.25 17 12.5V16.5C17 16.7812 16.75 17 16.5 17H12.5C12.2188 17 12 16.7812 12 16.5C12 16.25 12.2188 16 12.5 16H16V12.5Z" fill="#222222"/>
</svg>
