<svg width="16" height="14" viewBox="0 0 16 14" fill="none" xmlns="http://www.w3.org/2000/svg">
<path d="M7.625 3.09375L7.25 2.6875L7.09375 2.53125C6.28125 1.625 5.0625 1.1875 3.875 1.40625C2.1875 1.71875 1 3.15625 1 4.84375V4.96875C1 5.96875 1.40625 6.9375 2.15625 7.625L7.90625 12.9688C7.90625 13 7.9375 13 8 13C8.03125 13 8.0625 13 8.09375 12.9688L13.8438 7.625C14.5625 6.9375 15 5.96875 15 4.96875V4.84375C15 3.15625 13.7812 1.71875 12.125 1.40625C10.9062 1.1875 9.6875 1.625 8.875 2.53125L8.75 2.6875L8.375 3.09375C8.28125 3.1875 8.125 3.25 8 3.25C7.84375 3.25 7.71875 3.1875 7.625 3.09375ZM8.6875 1.3125C9.71875 0.53125 11 0.1875 12.2812 0.4375C14.4375 0.8125 16 2.6875 16 4.84375V4.96875C16 6.09375 15.5625 7.15625 14.8438 8C14.75 8.125 14.625 8.25 14.5 8.34375L8.75 13.7188C8.71875 13.7188 8.71875 13.75 8.6875 13.7812C8.46875 13.9375 8.25 14 8 14C7.6875 14 7.4375 13.9062 7.21875 13.7188L1.46875 8.34375C1.34375 8.25 1.21875 8.125 1.125 8C0.40625 7.15625 0 6.09375 0 4.96875L0 4.84375C0 2.6875 1.53125 0.8125 3.6875 0.4375C4.96875 0.1875 6.25 0.53125 7.28125 1.3125C7.46875 1.46875 7.6875 1.65625 7.84375 1.875L7.96875 2L8.125 1.875C8.25 1.71875 8.375 1.5625 8.53125 1.4375C8.59375 1.40625 8.65625 1.34375 8.6875 1.3125Z" fill="#222222"/>
</svg>
