<svg width="21" height="21" viewBox="0 0 21 21" fill="none" xmlns="http://www.w3.org/2000/svg">
<path d="M15.8037 6.32617C16.1787 6.70117 16.3975 7.20117 16.3975 7.73242V16.3887C16.3975 17.5137 15.4912 18.3887 14.3975 18.3887H6.39746C5.27246 18.3887 4.39746 17.5137 4.39746 16.3887L4.39746 4.38867C4.39746 3.29492 5.27246 2.38867 6.39746 2.38867H11.0537C11.585 2.38867 12.085 2.60742 12.46 2.98242L15.8037 6.32617ZM11.3975 3.48242V6.88867C11.3975 7.16992 11.6162 7.38867 11.8975 7.38867H15.3037C15.2725 7.26367 15.21 7.13867 15.085 7.01367L11.7725 3.70117C11.6475 3.57617 11.5225 3.51367 11.3975 3.48242ZM15.3975 16.3887V8.38867H11.8975C11.0537 8.38867 10.3975 7.73242 10.3975 6.88867V3.38867L6.39746 3.38867C5.83496 3.38867 5.39746 3.85742 5.39746 4.38867L5.39746 16.3887C5.39746 16.9512 5.83496 17.3887 6.39746 17.3887H14.3975C14.9287 17.3887 15.3975 16.9512 15.3975 16.3887ZM6.89746 5.38867C6.61621 5.38867 6.39746 5.16992 6.39746 4.88867C6.39746 4.63867 6.61621 4.38867 6.89746 4.38867H8.89746C9.14746 4.38867 9.39746 4.63867 9.39746 4.88867C9.39746 5.16992 9.14746 5.38867 8.89746 5.38867H6.89746ZM9.39746 6.88867C9.39746 7.16992 9.14746 7.38867 8.89746 7.38867H6.89746C6.61621 7.38867 6.39746 7.16992 6.39746 6.88867C6.39746 6.63867 6.61621 6.38867 6.89746 6.38867H8.89746C9.14746 6.38867 9.39746 6.63867 9.39746 6.88867ZM10.71 11.4199C10.0225 11.3262 9.45996 11.4824 9.39746 11.7949C9.36621 11.9512 9.33496 12.1074 10.3037 12.3574L10.4912 12.4199C11.335 12.6387 12.585 12.9512 12.3662 14.2012C12.2412 14.8574 11.6787 15.2637 10.8662 15.3574C10.8662 15.3887 10.8975 15.3887 10.8975 15.3887V15.8887C10.8975 16.1699 10.6475 16.3887 10.3975 16.3887C10.1162 16.3887 9.89746 16.1699 9.89746 15.8887V15.3887V15.3574C9.55371 15.2949 9.20996 15.2012 8.89746 15.1074L8.74121 15.0449C8.45996 14.9512 8.33496 14.6699 8.39746 14.4199C8.49121 14.1699 8.77246 14.0137 9.02246 14.1074L9.17871 14.1387C9.45996 14.2324 9.80371 14.3262 10.0537 14.3887C10.7412 14.4824 11.3037 14.3262 11.3662 14.0137C11.4287 13.7637 11.2725 13.6387 10.2725 13.3887L10.0537 13.3262C9.42871 13.1699 8.17871 12.8574 8.39746 11.6074C8.52246 10.9512 9.08496 10.5449 9.89746 10.4199C9.89746 10.4199 9.89746 10.4199 9.89746 10.3887V9.88867C9.89746 9.63867 10.1162 9.38867 10.3975 9.38867C10.6475 9.38867 10.8975 9.63867 10.8975 9.88867V10.3887C10.8975 10.4199 10.8662 10.4199 10.8662 10.4512C11.085 10.4824 11.335 10.5449 11.6475 10.6387C11.9287 10.7324 12.0537 11.0137 11.9912 11.2637C11.8975 11.5137 11.6162 11.6699 11.3662 11.6074C11.1475 11.5137 10.8975 11.4512 10.71 11.4199Z" fill="#222222"/>
</svg>
