<svg width="21" height="21" viewBox="0 0 21 21" fill="none" xmlns="http://www.w3.org/2000/svg">
<path d="M12.8975 8.88576C12.8975 10.2941 11.7725 11.3894 10.3975 11.3894C8.99121 11.3894 7.89746 10.2941 7.89746 8.88576C7.89746 7.50874 8.99121 6.38209 10.3975 6.38209C11.7725 6.38209 12.8975 7.50874 12.8975 8.88576ZM10.3975 10.388C11.21 10.388 11.8975 9.73074 11.8975 8.88576C11.8975 8.07206 11.21 7.38355 10.3975 7.38355C9.55371 7.38355 8.89746 8.07206 8.89746 8.88576C8.89746 9.73074 9.55371 10.388 10.3975 10.388ZM16.3975 8.88576C16.3975 11.6398 12.7412 16.4906 11.1162 18.5249C10.7412 18.9943 10.0225 18.9943 9.64746 18.5249C8.02246 16.4906 4.39746 11.6398 4.39746 8.88576C4.39746 5.5684 7.05371 2.87695 10.3975 2.87695C13.71 2.87695 16.3975 5.5684 16.3975 8.88576ZM10.3975 3.87842C7.61621 3.87842 5.39746 6.13172 5.39746 8.88576C5.39746 9.38649 5.55371 10.0437 5.89746 10.8887C6.24121 11.7024 6.70996 12.5787 7.27246 13.4549C8.33496 15.1762 9.58496 16.8349 10.3975 17.8364C11.1787 16.8349 12.4287 15.1762 13.4912 13.4549C14.0537 12.5787 14.5225 11.7024 14.8662 10.8887C15.21 10.0437 15.3975 9.38649 15.3975 8.88576C15.3975 6.13172 13.1475 3.87842 10.3975 3.87842Z" fill="#222222"/>
</svg>
