<svg width="31" height="30" viewBox="0 0 31 30" fill="none" xmlns="http://www.w3.org/2000/svg">
    <path
        d="M8.59961 9.5C8.59961 8.6875 9.25586 8 10.0996 8H13.0996C13.9121 8 14.5996 8.6875 14.5996 9.5V12.5C14.5996 13.3438 13.9121 14 13.0996 14H10.0996C9.25586 14 8.59961 13.3438 8.59961 12.5V9.5ZM9.59961 9.5V12.5C9.59961 12.7812 9.81836 13 10.0996 13H13.0996C13.3496 13 13.5996 12.7812 13.5996 12.5V9.5C13.5996 9.25 13.3496 9 13.0996 9H10.0996C9.81836 9 9.59961 9.25 9.59961 9.5ZM8.59961 17.5C8.59961 16.6875 9.25586 16 10.0996 16H13.0996C13.9121 16 14.5996 16.6875 14.5996 17.5V20.5C14.5996 21.3438 13.9121 22 13.0996 22H10.0996C9.25586 22 8.59961 21.3438 8.59961 20.5V17.5ZM9.59961 17.5V20.5C9.59961 20.7812 9.81836 21 10.0996 21H13.0996C13.3496 21 13.5996 20.7812 13.5996 20.5V17.5C13.5996 17.25 13.3496 17 13.0996 17H10.0996C9.81836 17 9.59961 17.25 9.59961 17.5ZM21.0996 8C21.9121 8 22.5996 8.6875 22.5996 9.5V12.5C22.5996 13.3438 21.9121 14 21.0996 14H18.0996C17.2559 14 16.5996 13.3438 16.5996 12.5V9.5C16.5996 8.6875 17.2559 8 18.0996 8H21.0996ZM21.0996 9H18.0996C17.8184 9 17.5996 9.25 17.5996 9.5V12.5C17.5996 12.7812 17.8184 13 18.0996 13H21.0996C21.3496 13 21.5996 12.7812 21.5996 12.5V9.5C21.5996 9.25 21.3496 9 21.0996 9ZM16.5996 17.5C16.5996 16.6875 17.2559 16 18.0996 16H21.0996C21.9121 16 22.5996 16.6875 22.5996 17.5V20.5C22.5996 21.3438 21.9121 22 21.0996 22H18.0996C17.2559 22 16.5996 21.3438 16.5996 20.5V17.5ZM17.5996 17.5V20.5C17.5996 20.7812 17.8184 21 18.0996 21H21.0996C21.3496 21 21.5996 20.7812 21.5996 20.5V17.5C21.5996 17.25 21.3496 17 21.0996 17H18.0996C17.8184 17 17.5996 17.25 17.5996 17.5Z"
        fill="#222222" />
</svg>
