<svg width="31" height="31" viewBox="0 0 31 31" fill="none" xmlns="http://www.w3.org/2000/svg">
    <path
        d="M7.59961 10.5C7.59961 9.40625 8.47461 8.5 9.59961 8.5H21.5996C22.6934 8.5 23.5996 9.40625 23.5996 10.5V20.5C23.5996 21.625 22.6934 22.5 21.5996 22.5H9.59961C8.47461 22.5 7.59961 21.625 7.59961 20.5V10.5ZM12.5996 11.5H22.5996V10.5C22.5996 9.96875 22.1309 9.5 21.5996 9.5H12.5996V11.5ZM11.5996 9.5H9.59961C9.03711 9.5 8.59961 9.96875 8.59961 10.5V11.5H11.5996V9.5ZM8.59961 12.5V20.5C8.59961 21.0625 9.03711 21.5 9.59961 21.5H21.5996C22.1309 21.5 22.5996 21.0625 22.5996 20.5V12.5H8.59961Z"
        fill="#222222" />
</svg>
