<svg width="17" height="15" viewBox="0 0 17 15" fill="none" xmlns="http://www.w3.org/2000/svg">
<path d="M5.89746 13.377C6.14746 13.377 6.39746 13.627 6.39746 13.877C6.39746 14.1582 6.14746 14.377 5.89746 14.377H2.89746C1.49121 14.377 0.397461 13.2832 0.397461 11.877V2.87695C0.397461 1.50195 1.49121 0.376953 2.89746 0.376953H5.89746C6.14746 0.376953 6.39746 0.626953 6.39746 0.876953C6.39746 1.1582 6.14746 1.37695 5.89746 1.37695H2.89746C2.05371 1.37695 1.39746 2.06445 1.39746 2.87695V11.877C1.39746 12.7207 2.05371 13.377 2.89746 13.377H5.89746ZM16.085 6.68945C16.2725 6.87695 16.3975 7.12695 16.3975 7.37695C16.3975 7.6582 16.2725 7.9082 16.085 8.0957L12.085 12.0957C11.8037 12.377 11.3662 12.4707 10.9912 12.3145C10.6162 12.1582 10.3975 11.7832 10.3975 11.377V9.37695H5.89746C5.05371 9.37695 4.39746 8.7207 4.39746 7.87695V6.87695C4.39746 6.06445 5.05371 5.37695 5.89746 5.37695H10.3975V3.37695C10.3975 3.00195 10.6162 2.62695 10.9912 2.4707C11.3662 2.31445 11.8037 2.4082 12.085 2.68945L16.085 6.68945ZM11.3975 11.377L15.3662 7.37695L11.3662 3.37695L11.3975 6.37695H5.89746C5.61621 6.37695 5.39746 6.62695 5.39746 6.87695V7.87695C5.39746 8.1582 5.61621 8.37695 5.89746 8.37695H11.3975V11.377Z" fill="#222222"/>
</svg>
