<svg width="21" height="21" viewBox="0 0 21 21" fill="none" xmlns="http://www.w3.org/2000/svg">
<path d="M4.61968 10.7654C3.31413 10.3765 2.39746 9.18207 2.39746 7.76541C2.39746 6.07096 3.78635 4.6543 5.50857 4.6543H10.8419C11.5641 4.6543 12.1752 5.26541 12.1752 5.98763V9.54319C12.1752 10.2932 11.5641 10.8765 10.8419 10.8765H9.64746L6.39746 16.4043C6.00857 17.0432 5.20302 17.2654 4.56413 16.8765L3.09191 16.0154C2.45302 15.6265 2.23079 14.821 2.61968 14.1821L4.61968 10.7654ZM3.28635 7.76541C3.28635 9.01541 4.25857 9.98763 5.50857 9.98763H10.8419C11.0641 9.98763 11.2864 9.79319 11.2864 9.54319V5.98763C11.2864 5.76541 11.0641 5.54319 10.8419 5.54319H5.50857C4.25857 5.54319 3.28635 6.54319 3.28635 7.76541ZM5.56413 10.8765L3.36968 14.6265C3.25857 14.8487 3.31413 15.1265 3.53635 15.2376L5.00857 16.1265C5.23079 16.2376 5.50857 16.1543 5.61968 15.9599L8.61968 10.8765H5.56413ZM17.953 4.6543C18.1752 4.6543 18.3975 4.87652 18.3975 5.09874C18.3975 5.34874 18.1752 5.54319 17.953 5.54319H14.3975C14.1475 5.54319 13.953 5.34874 13.953 5.09874C13.953 4.87652 14.1475 4.6543 14.3975 4.6543H17.953ZM13.953 6.87652C13.953 6.6543 14.1475 6.43207 14.3975 6.43207H17.953C18.1752 6.43207 18.3975 6.6543 18.3975 6.87652C18.3975 7.12652 18.1752 7.32096 17.953 7.32096H14.3975C14.1475 7.32096 13.953 7.12652 13.953 6.87652ZM17.953 9.09874C18.1752 9.09874 18.3975 9.32096 18.3975 9.54319C18.3975 9.79319 18.1752 9.98763 17.953 9.98763H14.3975C14.1475 9.98763 13.953 9.79319 13.953 9.54319C13.953 9.32096 14.1475 9.09874 14.3975 9.09874H17.953ZM13.953 11.321C13.953 11.0987 14.1475 10.8765 14.3975 10.8765H17.953C18.1752 10.8765 18.3975 11.0987 18.3975 11.321C18.3975 11.571 18.1752 11.7654 17.953 11.7654H14.3975C14.1475 11.7654 13.953 11.571 13.953 11.321ZM17.953 12.6543C18.1752 12.6543 18.3975 12.8765 18.3975 13.0987C18.3975 13.3487 18.1752 13.5432 17.953 13.5432H14.3975C14.1475 13.5432 13.953 13.3487 13.953 13.0987C13.953 12.8765 14.1475 12.6543 14.3975 12.6543H17.953ZM13.953 16.6543C13.953 16.4321 14.1475 16.2099 14.3975 16.2099H17.953C18.1752 16.2099 18.3975 16.4321 18.3975 16.6543C18.3975 16.9043 18.1752 17.0987 17.953 17.0987H14.3975C14.1475 17.0987 13.953 16.9043 13.953 16.6543Z" fill="#222222"/>
</svg>
