<svg width="21" height="21" viewBox="0 0 21 21" fill="none" xmlns="http://www.w3.org/2000/svg">
<path d="M20.1787 18.002C20.3975 18.1582 20.46 18.4707 20.2725 18.6895C20.1162 18.9082 19.8037 18.9395 19.585 18.7832L0.584961 3.7832C0.366211 3.62695 0.303711 3.31445 0.491211 3.0957C0.647461 2.87695 0.959961 2.81445 1.17871 3.00195L20.1787 18.002ZM19.3037 11.2832C18.9912 12.0332 18.4287 13.0645 17.6162 14.0645L16.835 13.4395C17.585 12.502 18.085 11.5957 18.3975 10.877C17.96 9.87695 17.0537 8.37695 15.71 7.12695C14.3662 5.87695 12.585 4.87695 10.3975 4.87695C9.14746 4.87695 8.02246 5.2207 7.05371 5.7207L6.20996 5.0332C7.39746 4.3457 8.77246 3.87695 10.3975 3.87695C12.8975 3.87695 14.9287 5.0332 16.3975 6.4082C17.8662 7.75195 18.835 9.37695 19.3037 10.502C19.3975 10.752 19.3975 11.0332 19.3037 11.2832ZM3.14746 7.7207L3.92871 8.3457C3.17871 9.25195 2.67871 10.1895 2.36621 10.877C2.80371 11.877 3.70996 13.377 5.05371 14.627C6.39746 15.877 8.17871 16.877 10.3662 16.877C11.6162 16.877 12.7412 16.5645 13.71 16.0645L14.5537 16.752C13.3662 17.4395 11.9912 17.877 10.3662 17.877C7.86621 17.877 5.83496 16.752 4.36621 15.377C2.89746 14.002 1.92871 12.377 1.45996 11.2832C1.36621 11.0332 1.36621 10.752 1.45996 10.502C1.77246 9.75195 2.33496 8.7207 3.14746 7.7207ZM6.36621 10.877C6.36621 10.6895 6.39746 10.502 6.42871 10.3145L7.39746 11.0645C7.49121 12.6582 8.77246 13.877 10.3662 13.877C10.5537 13.877 10.7412 13.877 10.8975 13.8457L11.8662 14.5957C11.3975 14.7832 10.8975 14.877 10.3662 14.877C8.17871 14.877 6.36621 13.0957 6.36621 10.877ZM14.3975 10.877C14.3975 11.0957 14.3662 11.2832 14.335 11.4707L13.3662 10.7207C13.2725 9.12695 11.9912 7.87695 10.3662 7.87695C10.21 7.87695 10.0225 7.9082 9.86621 7.93945L8.89746 7.18945C9.36621 7.00195 9.86621 6.87695 10.3662 6.87695C12.585 6.87695 14.3975 8.68945 14.3975 10.877Z" fill="#222222"/>
</svg>
