<svg width="21" height="21" viewBox="0 0 21 21" fill="none" xmlns="http://www.w3.org/2000/svg">
<path d="M2.64746 5.12695C2.64746 4.7207 2.95996 4.37695 3.39746 4.37695H4.89746C5.30371 4.37695 5.64746 4.7207 5.64746 5.12695V6.62695C5.64746 7.06445 5.30371 7.37695 4.89746 7.37695H3.39746C2.95996 7.37695 2.64746 7.06445 2.64746 6.62695V5.12695ZM4.64746 6.37695V5.37695H3.64746V6.37695H4.64746ZM17.6475 5.37695C17.8975 5.37695 18.1475 5.62695 18.1475 5.87695C18.1475 6.1582 17.8975 6.37695 17.6475 6.37695H7.64746C7.36621 6.37695 7.14746 6.1582 7.14746 5.87695C7.14746 5.62695 7.36621 5.37695 7.64746 5.37695H17.6475ZM17.6475 10.377C17.8975 10.377 18.1475 10.627 18.1475 10.877C18.1475 11.1582 17.8975 11.377 17.6475 11.377H7.64746C7.36621 11.377 7.14746 11.1582 7.14746 10.877C7.14746 10.627 7.36621 10.377 7.64746 10.377H17.6475ZM17.6475 15.377C17.8975 15.377 18.1475 15.627 18.1475 15.877C18.1475 16.1582 17.8975 16.377 17.6475 16.377H7.64746C7.36621 16.377 7.14746 16.1582 7.14746 15.877C7.14746 15.627 7.36621 15.377 7.64746 15.377H17.6475ZM4.89746 9.37695C5.30371 9.37695 5.64746 9.7207 5.64746 10.127V11.627C5.64746 12.0645 5.30371 12.377 4.89746 12.377H3.39746C2.95996 12.377 2.64746 12.0645 2.64746 11.627V10.127C2.64746 9.7207 2.95996 9.37695 3.39746 9.37695H4.89746ZM3.64746 10.377V11.377H4.64746V10.377H3.64746ZM2.64746 15.127C2.64746 14.7207 2.95996 14.377 3.39746 14.377H4.89746C5.30371 14.377 5.64746 14.7207 5.64746 15.127V16.627C5.64746 17.0645 5.30371 17.377 4.89746 17.377H3.39746C2.95996 17.377 2.64746 17.0645 2.64746 16.627V15.127ZM4.64746 16.377V15.377H3.64746V16.377H4.64746Z" fill="#222222"/>
</svg>
