<svg width="21" height="21" viewBox="0 0 21 21" fill="none" xmlns="http://www.w3.org/2000/svg">
<path d="M13.4131 14.0957C12.9756 14.3457 12.3193 14.0957 11.8193 14.2207C11.3506 14.3457 10.9131 14.877 10.4131 14.877C9.88182 14.877 9.44432 14.3457 8.97557 14.2207C8.47557 14.0957 7.81932 14.3457 7.38182 14.0957C6.94432 13.8457 6.85057 13.1582 6.50682 12.7832C6.13182 12.4395 5.44432 12.3145 5.19432 11.9082C4.94432 11.4707 5.19432 10.8145 5.06932 10.3145C4.94432 9.8457 4.41307 9.4082 4.41307 8.87695C4.41307 8.37695 4.94432 7.93945 5.06932 7.4707C5.19432 6.9707 4.94432 6.31445 5.19432 5.87695C5.44432 5.43945 6.13182 5.3457 6.50682 5.00195C6.85057 4.62695 6.97557 3.93945 7.38182 3.68945C7.81932 3.43945 8.47557 3.68945 8.97557 3.56445C9.44432 3.43945 9.88182 2.87695 10.4131 2.87695C10.9131 2.87695 11.3506 3.43945 11.7881 3.56445C12.2881 3.68945 12.9443 3.43945 13.3818 3.68945C13.8193 3.93945 13.9131 4.62695 14.2881 5.00195C14.6318 5.3457 15.3193 5.43945 15.5693 5.87695C15.8193 6.31445 15.5693 6.9707 15.6943 7.4707C15.8193 7.93945 16.3818 8.37695 16.3818 8.87695C16.3818 9.4082 15.8506 9.8457 15.7256 10.3145C15.6006 10.8145 15.8506 11.4707 15.6006 11.9082C15.3506 12.3457 14.6631 12.4395 14.2881 12.7832C13.9443 13.1582 13.8193 13.8457 13.4131 14.0957ZM10.3818 13.877C10.6631 13.752 11.0381 13.4082 11.5693 13.252C12.1006 13.127 12.6006 13.2207 12.8818 13.2207C13.0381 12.9707 13.2256 12.4707 13.6006 12.0957C13.9756 11.7207 14.4756 11.5332 14.7256 11.377C14.7256 11.0645 14.6318 10.5645 14.7568 10.0645C14.9131 9.5332 15.2568 9.1582 15.3818 8.9082C15.2568 8.62695 14.9131 8.25195 14.7568 7.7207C14.6318 7.18945 14.7256 6.68945 14.7256 6.4082C14.4756 6.25195 13.9756 6.06445 13.6006 5.68945C13.2256 5.31445 13.0381 4.81445 12.8818 4.56445C12.6006 4.56445 12.1006 4.6582 11.5693 4.5332C11.0381 4.37695 10.6631 4.0332 10.3818 3.9082C10.1318 4.0332 9.75682 4.37695 9.22557 4.5332C8.69432 4.6582 8.19432 4.56445 7.91307 4.56445C7.75682 4.81445 7.56932 5.31445 7.19432 5.68945C6.81932 6.06445 6.31932 6.25195 6.06932 6.4082C6.06932 6.68945 6.16307 7.18945 6.03807 7.7207C5.88182 8.25195 5.53807 8.62695 5.41307 8.9082C5.53807 9.1582 5.88182 9.5332 6.03807 10.0645C6.16307 10.5957 6.06932 11.0957 6.06932 11.377C6.28807 11.5332 6.78807 11.7207 7.16307 12.0957C7.53807 12.4707 7.72557 12.9707 7.88182 13.1895C8.16307 13.2207 8.66307 13.127 9.19432 13.252C9.72557 13.4082 10.1318 13.752 10.3818 13.877ZM13.1318 8.87695C13.1318 10.4082 11.8506 11.627 10.3818 11.627C8.88182 11.627 7.66307 10.4082 7.66307 8.87695C7.66307 7.37695 8.91307 6.12695 10.4131 6.12695C11.8818 6.12695 13.1318 7.37695 13.1318 8.87695ZM10.4131 10.627C11.3506 10.627 12.1318 9.8457 12.1318 8.87695C12.1318 7.93945 11.3193 7.12695 10.3818 7.12695C9.44432 7.12695 8.66307 7.93945 8.66307 8.87695C8.66307 9.8457 9.44432 10.627 10.4131 10.627ZM15.5693 14.4707L16.3193 16.377C16.4756 16.7207 16.4131 17.1582 16.1631 17.4395C15.9131 17.752 15.5068 17.877 15.1318 17.8145L14.4443 17.6582L14.1318 18.3145C13.9443 18.6582 13.6006 18.877 13.1943 18.877C12.7256 18.877 12.3818 18.627 12.2256 18.2207L11.4443 16.3145C11.3193 16.0645 11.4443 15.7832 11.6943 15.6582C11.9756 15.5645 12.2568 15.6895 12.3506 15.9395L13.1318 17.8457L13.9131 16.5332L15.3818 16.752L14.6318 14.8145C14.5381 14.5645 14.6631 14.2832 14.9131 14.1895C15.1631 14.0645 15.4756 14.1895 15.5693 14.4707ZM9.10057 15.6582C9.35057 15.7832 9.47557 16.0645 9.35057 16.3145L8.56932 18.2207C8.41307 18.627 8.06932 18.877 7.63182 18.877C7.19432 18.877 6.85057 18.6582 6.66307 18.3145L6.35057 17.6582L5.66307 17.8145C5.28807 17.877 4.88182 17.752 4.63182 17.4395C4.38182 17.1582 4.31932 16.7207 4.47557 16.377L5.22557 14.4707C5.31932 14.1895 5.63182 14.0645 5.88182 14.1895C6.13182 14.2832 6.25682 14.5645 6.16307 14.8145L5.41307 16.752L6.88182 16.5332L7.66307 17.8457L8.44432 15.9395C8.53807 15.6895 8.81932 15.5645 9.10057 15.6582Z" fill="#222222"/>
</svg>
