<svg width="30" height="31" viewBox="0 0 30 31" fill="none" xmlns="http://www.w3.org/2000/svg">
    <path
        d="M14.25 23.125C12.625 21.0938 9 16.25 9 13.5C9 10.1875 11.6562 7.5 15 7.5C18.3125 7.5 21 10.1875 21 13.5C21 16.25 17.3438 21.0938 15.7188 23.125C15.3438 23.5938 14.625 23.5938 14.25 23.125ZM19.4688 15.5C19.8125 14.6562 20 14 20 13.5C20 10.75 17.75 8.5 15 8.5C12.2188 8.5 10 10.75 10 13.5C10 14 10.1562 14.6562 10.5 15.5C10.8438 16.3125 11.3125 17.1875 11.875 18.0625C12.9375 19.7812 14.1875 21.4375 15 22.4375C15.7812 21.4375 17.0312 19.7812 18.0938 18.0625C18.6562 17.1875 19.125 16.3125 19.4688 15.5Z"
        fill="#222222" />
</svg>
