<svg width="21" height="21" viewBox="0 0 21 21" fill="none" xmlns="http://www.w3.org/2000/svg">
    <path
        d="M20.4707 19.9453C20.7051 20.1797 20.7051 20.6094 20.4707 20.8438C20.3535 20.9609 20.1973 21 20.041 21C19.8457 21 19.6895 20.9609 19.5332 20.8438L14.0254 15.2969C12.5801 16.5469 10.7441 17.25 8.75195 17.25C4.29883 17.25 0.666016 13.6172 0.666016 9.125C0.666016 4.67188 4.25977 1 8.75195 1C13.2051 1 16.877 4.67188 16.877 9.125C16.877 11.1562 16.1738 12.9922 14.9238 14.4375L20.4707 19.9453ZM8.79102 16C12.5801 16 15.666 12.9531 15.666 9.125C15.666 5.33594 12.5801 2.25 8.79102 2.25C4.96289 2.25 1.91602 5.33594 1.91602 9.125C1.91602 12.9141 4.96289 16 8.79102 16Z"
        fill="#222222" />
</svg>
