<svg width="20" height="21" viewBox="0 0 20 21" fill="none" xmlns="http://www.w3.org/2000/svg">
<path d="M18.125 2.30469C18.4375 2.30469 18.75 2.61719 18.75 2.92969V9.17969C18.75 9.53125 18.4375 9.80469 18.125 9.80469H11.875C11.5234 9.80469 11.25 9.53125 11.25 9.17969C11.25 8.86719 11.5234 8.55469 11.875 8.55469H16.3672C15.3516 5.9375 12.8125 4.17969 10 4.17969C6.60156 4.17969 3.75 6.60156 3.20312 9.92188C3.16406 10.2344 2.89062 10.4297 2.57812 10.4297C2.53906 10.4297 2.5 10.4297 2.5 10.4297C2.14844 10.3906 1.91406 10.0781 1.95312 9.72656C2.61719 5.78125 6.01562 2.92969 10 2.92969C13.2812 2.92969 16.25 4.96094 17.5 8.00781V2.92969C17.5 2.61719 17.7734 2.30469 18.125 2.30469ZM17.4609 11.7188C17.8125 11.7578 18.0469 12.0703 18.0078 12.4219C17.3438 16.3672 13.9453 19.1797 10 19.1797C6.67969 19.1797 3.71094 17.1875 2.5 14.1406V19.1797C2.5 19.5312 2.1875 19.8047 1.875 19.8047C1.52344 19.8047 1.25 19.5312 1.25 19.1797V12.9297C1.25 12.6172 1.52344 12.3047 1.875 12.3047H8.125C8.4375 12.3047 8.75 12.6172 8.75 12.9297C8.75 13.2812 8.4375 13.5547 8.125 13.5547H3.55469C4.57031 16.2109 7.10938 17.9297 9.96094 17.9297C13.3594 17.9297 16.2109 15.5469 16.7188 12.2266C16.7969 11.875 17.1094 11.6406 17.4609 11.7188Z" fill="white"/>
</svg>
