<svg width="21" height="21" viewBox="0 0 21 21" fill="none" xmlns="http://www.w3.org/2000/svg">
<path d="M14.3975 2.87695C15.4912 2.87695 16.3975 3.7832 16.3975 4.87695V18.377C16.3975 18.5645 16.2725 18.752 16.1162 18.8457C16.0537 18.877 15.96 18.877 15.8975 18.877C15.8037 18.877 15.71 18.877 15.6162 18.7832L10.3975 15.4707L5.14746 18.7832C4.99121 18.877 4.80371 18.877 4.64746 18.8145C4.49121 18.7207 4.39746 18.5332 4.39746 18.377L4.39746 4.87695C4.39746 3.7832 5.27246 2.87695 6.39746 2.87695L14.3975 2.87695ZM15.3975 17.4707L15.3975 4.87695C15.3975 4.3457 14.9287 3.87695 14.3975 3.87695L6.39746 3.87695C5.83496 3.87695 5.39746 4.3457 5.39746 4.87695L5.39746 17.4707L10.1162 14.4707C10.21 14.4082 10.3037 14.377 10.3975 14.377C10.4912 14.377 10.5537 14.4082 10.6475 14.4707L15.3975 17.4707Z" fill="#222222"/>
</svg>
