<svg width="15" height="19" viewBox="0 0 15 19" fill="none" xmlns="http://www.w3.org/2000/svg">
<path d="M12.5605 10.75C13.6934 10.75 14.2402 12.1172 13.3809 12.8984L8.41992 17.8984C7.91211 18.4062 7.13086 18.4062 6.62305 17.8984L1.66211 12.8984C0.880859 12.1172 1.42773 10.75 2.56055 10.75H12.5605ZM7.59961 17L12.5605 12H2.59961L7.59961 17ZM2.59961 8.25C1.4668 8.25 0.919922 6.92188 1.70117 6.14062L6.74023 1.14062C7.20898 0.632812 7.99023 0.632812 8.49805 1.14062L13.459 6.14062C14.2402 6.92188 13.6934 8.25 12.5605 8.25H2.59961ZM7.59961 2L2.56055 7H12.5605L7.59961 2Z" fill="#707070"/>
</svg>
