<svg width="30" height="31" viewBox="0 0 30 31" fill="none" xmlns="http://www.w3.org/2000/svg">
    <path
        d="M12.25 15.5C12.25 14 13.4688 12.75 15 12.75C16.5 12.75 17.75 14 17.75 15.5C17.75 17.0312 16.5 18.25 15 18.25C13.4688 18.25 12.25 17.0312 12.25 15.5ZM15 13.75C14.0312 13.75 13.25 14.5625 13.25 15.5C13.25 16.4688 14.0312 17.25 15 17.25C15.9375 17.25 16.75 16.4688 16.75 15.5C16.75 14.5625 15.9375 13.75 15 13.75ZM9.03125 14.7188L7.78125 13.5625C7.4375 13.25 7.34375 12.75 7.59375 12.3438L8.53125 10.6875C8.75 10.2812 9.25 10.0938 9.6875 10.25L11.3125 10.75C11.75 10.4375 12.2188 10.1562 12.6875 9.96875L13.0625 8.3125C13.1562 7.84375 13.5625 7.5 14.0312 7.5H15.9375C16.4062 7.5 16.8125 7.84375 16.9062 8.3125L17.2812 9.96875C17.75 10.1562 18.2188 10.4375 18.6562 10.75L20.2812 10.25C20.7188 10.0938 21.2188 10.2812 21.4375 10.6875L22.375 12.3438C22.625 12.75 22.5312 13.25 22.1875 13.5625L20.9375 14.7188C20.9688 14.9688 21 15.25 21 15.5C21 15.7812 20.9688 16.0625 20.9375 16.3125L22.1875 17.4688C22.5312 17.7812 22.625 18.2812 22.375 18.6875L21.4375 20.3438C21.2188 20.75 20.7188 20.9375 20.2812 20.7812L18.6562 20.2812C18.2188 20.5938 17.75 20.8438 17.2812 21.0625L16.9062 22.7188C16.8125 23.1875 16.4062 23.5 15.9375 23.5H14.0312C13.5625 23.5 13.1562 23.1875 13.0625 22.7188L12.6875 21.0625C12.2188 20.8438 11.75 20.5938 11.3125 20.2812L9.6875 20.7812C9.25 20.9375 8.75 20.75 8.53125 20.3438L7.59375 18.6875C7.34375 18.2812 7.4375 17.7812 7.78125 17.4688L9.03125 16.3125C9 16.0625 9 15.7812 9 15.5C9 15.25 9 14.9688 9.03125 14.7188ZM11.9375 11.5625L11.5312 11.875L9.40625 11.1875L8.4375 12.8438L10.0938 14.3438L10.0312 14.8438C10 15.0625 10 15.2812 10 15.5C10 15.75 10 15.9688 10.0312 16.1875L10.0938 16.6875L8.4375 18.1875L9.40625 19.8438L11.5312 19.1562L11.9375 19.4688C12.2812 19.75 12.6562 19.9688 13.0938 20.125L13.5625 20.3438L14.0312 22.5H15.9375L16.4062 20.3438L16.875 20.125C17.3125 19.9688 17.6875 19.75 18.0312 19.4688L18.4375 19.1562L20.5625 19.8438L21.5312 18.1875L19.875 16.6875L19.9375 16.1875C19.9688 15.9688 20 15.75 20 15.5C20 15.2812 19.9688 15.0625 19.9375 14.8438L19.875 14.3438L21.5312 12.8438L20.5625 11.1875L18.4375 11.875L18.0312 11.5625C17.6875 11.2812 17.3125 11.0625 16.875 10.875L16.4062 10.6875L15.9375 8.5H14.0312L13.5625 10.6875L13.0938 10.875C12.6562 11.0625 12.2812 11.2812 11.9375 11.5625Z"
        fill="#222222" />
</svg>
