<svg width="31" height="31" viewBox="0 0 31 31" fill="none" xmlns="http://www.w3.org/2000/svg">
    <path
        d="M8.09961 9.75C8.09961 9.34375 8.41211 9 8.84961 9H10.3496C10.7559 9 11.0996 9.34375 11.0996 9.75V11.25C11.0996 11.6875 10.7559 12 10.3496 12H8.84961C8.41211 12 8.09961 11.6875 8.09961 11.25V9.75ZM10.0996 11V10H9.09961V11H10.0996ZM23.0996 10C23.3496 10 23.5996 10.25 23.5996 10.5C23.5996 10.7812 23.3496 11 23.0996 11H13.0996C12.8184 11 12.5996 10.7812 12.5996 10.5C12.5996 10.25 12.8184 10 13.0996 10H23.0996ZM23.0996 15C23.3496 15 23.5996 15.25 23.5996 15.5C23.5996 15.7812 23.3496 16 23.0996 16H13.0996C12.8184 16 12.5996 15.7812 12.5996 15.5C12.5996 15.25 12.8184 15 13.0996 15H23.0996ZM23.0996 20C23.3496 20 23.5996 20.25 23.5996 20.5C23.5996 20.7812 23.3496 21 23.0996 21H13.0996C12.8184 21 12.5996 20.7812 12.5996 20.5C12.5996 20.25 12.8184 20 13.0996 20H23.0996ZM10.3496 14C10.7559 14 11.0996 14.3438 11.0996 14.75V16.25C11.0996 16.6875 10.7559 17 10.3496 17H8.84961C8.41211 17 8.09961 16.6875 8.09961 16.25V14.75C8.09961 14.3438 8.41211 14 8.84961 14H10.3496ZM9.09961 15V16H10.0996V15H9.09961ZM8.09961 19.75C8.09961 19.3438 8.41211 19 8.84961 19H10.3496C10.7559 19 11.0996 19.3438 11.0996 19.75V21.25C11.0996 21.6875 10.7559 22 10.3496 22H8.84961C8.41211 22 8.09961 21.6875 8.09961 21.25V19.75ZM10.0996 21V20H9.09961V21H10.0996Z"
        fill="#222222" />
</svg>
