<svg width="21" height="21" viewBox="0 0 21 21" fill="none" xmlns="http://www.w3.org/2000/svg">
<path d="M8.74121 9.76367C8.55371 9.95117 8.20996 9.95117 8.02246 9.76367L5.52246 7.26367C5.33496 7.07617 5.33496 6.73242 5.52246 6.54492C5.70996 6.35742 6.05371 6.35742 6.24121 6.54492L8.39746 8.70117L13.0225 4.04492C13.21 3.85742 13.5537 3.85742 13.7412 4.04492C13.9287 4.23242 13.9287 4.57617 13.7412 4.76367L8.74121 9.76367ZM8.74121 16.7637C8.55371 16.9512 8.20996 16.9512 8.02246 16.7637L3.52246 12.2637C3.33496 12.0762 3.33496 11.7324 3.52246 11.5449C3.70996 11.3574 4.05371 11.3574 4.24121 11.5449L8.39746 15.7012L16.5225 7.54492C16.71 7.35742 17.0537 7.35742 17.2412 7.54492C17.4287 7.73242 17.4287 8.07617 17.2412 8.26367L8.74121 16.7637Z" fill="#222222"/>
</svg>
