<svg width="20" height="19" viewBox="0 0 20 19" fill="none" xmlns="http://www.w3.org/2000/svg">
<path d="M12.125 6.61182L15.8125 12.2056C16.0312 12.4868 16.0312 12.8618 15.875 13.1743C15.7188 13.4868 15.375 13.6743 15.0312 13.6743H4.9375C4.59375 13.6743 4.25 13.4868 4.09375 13.1743C3.9375 12.8306 3.96875 12.4556 4.15625 12.1743L6.1875 9.36182C6.53125 8.86182 7.375 8.86182 7.75 9.36182L8.25 10.0806L10.5312 6.61182C10.9062 6.08057 11.7812 6.08057 12.125 6.61182ZM4.96875 12.6743H14.9688L11.3125 7.17432L8.6875 11.2368C8.59375 11.3618 8.4375 11.4556 8.28125 11.4556C8.125 11.4868 7.96875 11.3931 7.875 11.2368L6.9375 9.95557L4.96875 12.6743ZM15.9688 2.67432C17.0938 2.67432 17.9688 3.58057 17.9688 4.67432V14.6743C17.9688 15.7993 17.0625 16.6743 15.9688 16.6743H3.96875C2.875 16.6743 1.96875 15.7993 1.96875 14.6743V4.67432C1.96875 3.58057 2.875 2.67432 3.96875 2.67432H15.9688ZM17 14.6743V4.67432C17 4.14307 16.5312 3.67432 16 3.67432H4C3.4375 3.67432 3 4.14307 3 4.67432V14.6743C3 15.2368 3.4375 15.6743 4 15.6743H16C16.5312 15.6743 17 15.2368 17 14.6743ZM6.5 7.67432C5.65625 7.67432 5 7.01807 5 6.17432C5 5.36182 5.65625 4.67432 6.5 4.67432C7.3125 4.67432 8 5.36182 8 6.17432C8 7.01807 7.3125 7.67432 6.5 7.67432ZM6.5 5.67432C6.21875 5.67432 6 5.92432 6 6.17432C6 6.45557 6.21875 6.67432 6.5 6.67432C6.75 6.67432 6.96875 6.45557 6.96875 6.17432C6.96875 5.92432 6.75 5.67432 6.5 5.67432Z" fill="#9E9E9E"/>
</svg>
