<svg width="21" height="21" viewBox="0 0 21 21" fill="none" xmlns="http://www.w3.org/2000/svg">
<path d="M10.5928 4.00195C10.4678 3.9707 10.3115 3.9707 10.1865 4.00195L1.99902 7.4707C1.62402 7.62695 1.40527 7.9707 1.40527 8.37695L1.40527 18.377C1.40527 18.6582 1.15527 18.877 0.905273 18.877C0.624023 18.877 0.405273 18.6582 0.405273 18.377L0.405273 8.37695C0.405273 7.5957 0.874023 6.8457 1.62402 6.5332L9.81152 3.0957C10.1865 2.93945 10.5928 2.93945 10.9678 3.0957L19.1553 6.5332C19.9053 6.8457 20.4053 7.5957 20.4053 8.37695V18.377C20.4053 18.6582 20.1553 18.877 19.9053 18.877C19.624 18.877 19.4053 18.6582 19.4053 18.377V8.37695C19.4053 7.9707 19.1553 7.62695 18.7803 7.4707L10.5928 4.00195ZM3.40527 9.87695C3.40527 9.3457 3.84277 8.87695 4.40527 8.87695H16.4053C16.9365 8.87695 17.4053 9.3457 17.4053 9.87695V18.377C17.4053 18.6582 17.1553 18.877 16.9053 18.877C16.874 18.877 16.874 18.877 16.874 18.877H3.90527C3.62402 18.877 3.40527 18.6582 3.40527 18.377L3.40527 9.87695ZM4.40527 17.877H16.4053V15.877H4.40527V17.877ZM4.40527 12.877L4.40527 14.877H16.4053V12.877H4.40527ZM4.40527 11.877H16.4053V9.87695H4.40527V11.877Z" fill="#222222"/>
</svg>
