<svg width="21" height="21" viewBox="0 0 21 21" fill="none" xmlns="http://www.w3.org/2000/svg">
<path d="M14.3975 10.877C14.3975 13.0957 12.585 14.877 10.3975 14.877C8.17871 14.877 6.39746 13.0957 6.39746 10.877C6.39746 8.68945 8.17871 6.87695 10.3975 6.87695C12.585 6.87695 14.3975 8.68945 14.3975 10.877ZM10.3975 7.87695C8.70996 7.87695 7.39746 9.2207 7.39746 10.877C7.39746 12.5332 8.70996 13.877 10.3975 13.877C12.0537 13.877 13.3975 12.5332 13.3975 10.877C13.3975 9.2207 12.0537 7.87695 10.3975 7.87695ZM16.3975 6.4082C17.8662 7.75195 18.835 9.37695 19.3037 10.502C19.3975 10.752 19.3975 11.0332 19.3037 11.2832C18.835 12.377 17.8662 14.002 16.3975 15.377C14.9287 16.752 12.8975 17.877 10.3975 17.877C7.86621 17.877 5.83496 16.752 4.36621 15.377C2.89746 14.002 1.92871 12.377 1.45996 11.2832C1.36621 11.0332 1.36621 10.752 1.45996 10.502C1.92871 9.37695 2.89746 7.75195 4.36621 6.4082C5.83496 5.0332 7.86621 3.87695 10.3975 3.87695C12.8975 3.87695 14.9287 5.0332 16.3975 6.4082ZM2.39746 10.877C2.80371 11.877 3.70996 13.377 5.05371 14.627C6.39746 15.877 8.17871 16.877 10.3975 16.877C12.585 16.877 14.3662 15.877 15.71 14.627C17.0537 13.377 17.96 11.877 18.3975 10.877C17.96 9.87695 17.0537 8.37695 15.71 7.12695C14.3662 5.87695 12.585 4.87695 10.3975 4.87695C8.17871 4.87695 6.39746 5.87695 5.05371 7.12695C3.70996 8.37695 2.80371 9.87695 2.39746 10.877Z" fill="#222222"/>
</svg>
