<svg width="30" height="31" viewBox="0 0 30 31" fill="none" xmlns="http://www.w3.org/2000/svg">
    <path
        d="M12.5 21.5C12.75 21.5 13 21.75 13 22C13 22.2812 12.75 22.5 12.5 22.5H9.5C8.09375 22.5 7 21.4062 7 20V11C7 9.625 8.09375 8.5 9.5 8.5H12.5C12.75 8.5 13 8.75 13 9C13 9.28125 12.75 9.5 12.5 9.5H9.5C8.65625 9.5 8 10.1875 8 11V20C8 20.8438 8.65625 21.5 9.5 21.5H12.5ZM22.6875 14.8125C22.875 15 23 15.25 23 15.5C23 15.7812 22.875 16.0312 22.6875 16.2188L18.6875 20.2188C18.4062 20.5 17.9688 20.5938 17.5938 20.4375C17.2188 20.2812 17 19.9062 17 19.5V17.5H12.5C11.6562 17.5 11 16.8438 11 16V15C11 14.1875 11.6562 13.5 12.5 13.5H17V11.5C17 11.125 17.2188 10.75 17.5938 10.5938C17.9688 10.4375 18.4062 10.5312 18.6875 10.8125L22.6875 14.8125ZM18 19.5L21.9688 15.5L17.9688 11.5L18 14.5H12.5C12.2188 14.5 12 14.75 12 15V16C12 16.2812 12.2188 16.5 12.5 16.5H18V19.5Z"
        fill="#222222" />
</svg>
