<svg width="21" height="21" viewBox="0 0 21 21" fill="none" xmlns="http://www.w3.org/2000/svg">
<path d="M10.8544 4.9082C11.8231 5.00195 12.7606 5.18945 13.4481 5.37695C13.7294 5.43945 13.8856 5.68945 13.8231 5.9707C13.7606 6.25195 13.4794 6.4082 13.2294 6.3457C12.1981 6.0957 10.6669 5.7832 9.32312 5.9082C8.66687 5.9707 8.10437 6.0957 7.69812 6.37695C7.29187 6.6582 7.01062 7.0332 6.88562 7.62695C6.79187 8.0957 6.85437 8.43945 6.97937 8.68945C7.10437 8.9707 7.32312 9.18945 7.66687 9.4082C8.35437 9.8457 9.35437 10.0957 10.4794 10.4082H10.5106C11.5731 10.6895 12.7294 11.002 13.5419 11.5332C13.9794 11.8145 14.3544 12.1582 14.6044 12.627C14.8231 13.127 14.8856 13.6895 14.7919 14.3145C14.5731 15.377 13.8231 16.0957 12.8231 16.502C12.2294 16.7207 11.5731 16.8457 10.8544 16.877L10.8544 18.377C10.8544 18.6582 10.6044 18.877 10.3544 18.877C10.0731 18.877 9.85437 18.6582 9.85437 18.377V16.8457C9.63562 16.8145 9.44812 16.8145 9.26062 16.7832C8.41687 16.6582 7.19812 16.377 6.13562 15.9082C5.88562 15.8145 5.76062 15.502 5.88562 15.252C5.97937 15.002 6.29187 14.877 6.54187 15.002C7.47937 15.4082 8.63562 15.6582 9.38562 15.7832C10.6044 15.9707 11.6669 15.877 12.4481 15.5645C13.2294 15.252 13.6669 14.7832 13.7919 14.127C13.8856 13.6582 13.8231 13.3457 13.6981 13.0645C13.5731 12.8145 13.3544 12.5645 13.0106 12.377C12.3231 11.9395 11.3231 11.6582 10.1981 11.377L10.1669 11.3457C9.10437 11.0645 7.94812 10.7832 7.13562 10.252C6.69812 9.9707 6.32312 9.5957 6.07312 9.12695C5.85437 8.6582 5.79187 8.0957 5.88562 7.43945C6.07312 6.56445 6.51062 5.9707 7.13562 5.5332C7.76062 5.1582 8.51062 4.9707 9.26062 4.9082C9.44812 4.87695 9.63562 4.87695 9.85437 4.87695V3.37695C9.85437 3.12695 10.0731 2.87695 10.3544 2.87695C10.6044 2.87695 10.8544 3.12695 10.8544 3.37695V4.9082Z" fill="#222222"/>
</svg>
