<svg width="21" height="21" viewBox="0 0 21 21" fill="none" xmlns="http://www.w3.org/2000/svg">
<path d="M9.64746 18.5137C8.02246 16.4824 4.39746 11.6387 4.39746 8.88867C4.39746 5.57617 7.05371 2.88867 10.3975 2.88867C13.71 2.88867 16.3975 5.57617 16.3975 8.88867C16.3975 11.6387 12.7412 16.4824 11.1162 18.5137C10.7412 18.9824 10.0225 18.9824 9.64746 18.5137ZM14.8662 10.8887C15.21 10.0449 15.3975 9.38867 15.3975 8.88867C15.3975 6.13867 13.1475 3.88867 10.3975 3.88867C7.61621 3.88867 5.39746 6.13867 5.39746 8.88867C5.39746 9.38867 5.55371 10.0449 5.89746 10.8887C6.24121 11.7012 6.70996 12.5762 7.27246 13.4512C8.33496 15.1699 9.58496 16.8262 10.3975 17.8262C11.1787 16.8262 12.4287 15.1699 13.4912 13.4512C14.0537 12.5762 14.5225 11.7012 14.8662 10.8887Z" fill="#222222"/>
</svg>
