<svg width="31" height="31" viewBox="0 0 31 31" fill="none" xmlns="http://www.w3.org/2000/svg">
    <path
        d="M18.0996 13.5C18.0996 14.9062 16.9746 16 15.5996 16C14.1934 16 13.0996 14.9062 13.0996 13.5C13.0996 12.125 14.1934 11 15.5996 11C16.9746 11 18.0996 12.125 18.0996 13.5ZM15.5996 15C16.4121 15 17.0996 14.3438 17.0996 13.5C17.0996 12.6875 16.4121 12 15.5996 12C14.7559 12 14.0996 12.6875 14.0996 13.5C14.0996 14.3438 14.7559 15 15.5996 15ZM21.5996 13.5C21.5996 16.25 17.9434 21.0938 16.3184 23.125C15.9434 23.5938 15.2246 23.5938 14.8496 23.125C13.2246 21.0938 9.59961 16.25 9.59961 13.5C9.59961 10.1875 12.2559 7.5 15.5996 7.5C18.9121 7.5 21.5996 10.1875 21.5996 13.5ZM15.5996 8.5C12.8184 8.5 10.5996 10.75 10.5996 13.5C10.5996 14 10.7559 14.6562 11.0996 15.5C11.4434 16.3125 11.9121 17.1875 12.4746 18.0625C13.5371 19.7812 14.7871 21.4375 15.5996 22.4375C16.3809 21.4375 17.6309 19.7812 18.6934 18.0625C19.2559 17.1875 19.7246 16.3125 20.0684 15.5C20.4121 14.6562 20.5996 14 20.5996 13.5C20.5996 10.75 18.3496 8.5 15.5996 8.5Z"
        fill="#222222" />
</svg>
