<svg width="26" height="25" viewBox="0 0 26 25" fill="none" xmlns="http://www.w3.org/2000/svg">
<path d="M12.7234 2.2207C8.92651 2.2207 5.50464 4.23633 3.62964 7.4707C1.70776 10.752 1.70776 14.7363 3.62964 17.9707C5.50464 21.252 8.92651 23.2207 12.7234 23.2207C16.4734 23.2207 19.8953 21.252 21.7703 17.9707C23.6921 14.7363 23.6921 10.752 21.7703 7.4707C19.8953 4.23633 16.4734 2.2207 12.7234 2.2207ZM12.7234 24.7207C8.41089 24.7207 4.47339 22.4707 2.31714 18.7207C0.160889 15.0176 0.160889 10.4707 2.31714 6.7207C4.47339 3.01758 8.41089 0.720703 12.7234 0.720703C16.989 0.720703 20.9265 3.01758 23.0828 6.7207C25.239 10.4707 25.239 15.0176 23.0828 18.7207C20.9265 22.4707 16.989 24.7207 12.7234 24.7207ZM12.7234 6.7207C13.0984 6.7207 13.4734 7.0957 13.4734 7.4707V13.4707C13.4734 13.8926 13.0984 14.2207 12.7234 14.2207C12.3015 14.2207 11.9734 13.8926 11.9734 13.4707V7.4707C11.9734 7.0957 12.3015 6.7207 12.7234 6.7207ZM13.8484 17.2207C13.8484 17.877 13.3328 18.3457 12.7234 18.3457C12.0671 18.3457 11.5984 17.877 11.5984 17.2207C11.5984 16.6113 12.0671 16.0957 12.7234 16.0957C13.3328 16.0957 13.8484 16.6113 13.8484 17.2207Z" fill="#C02626"/>
</svg>
