<svg width="20" height="21" viewBox="0 0 20 21" fill="none" xmlns="http://www.w3.org/2000/svg">
<path d="M0 2.875C0 2.5625 0.273438 2.25 0.625 2.25C0.9375 2.25 1.25 2.5625 1.25 2.875V19.125C1.25 19.4766 0.9375 19.75 0.625 19.75C0.273438 19.75 0 19.4766 0 19.125V2.875ZM2.5 2.875C2.5 2.5625 2.77344 2.25 3.125 2.25C3.4375 2.25 3.75 2.5625 3.75 2.875V19.125C3.75 19.4766 3.4375 19.75 3.125 19.75C2.77344 19.75 2.5 19.4766 2.5 19.125V2.875ZM6.25 2.875V19.125C6.25 19.4766 5.9375 19.75 5.625 19.75C5.27344 19.75 5 19.4766 5 19.125V2.875C5 2.5625 5.27344 2.25 5.625 2.25C5.9375 2.25 6.25 2.5625 6.25 2.875ZM8.75 2.875C8.75 2.5625 9.02344 2.25 9.375 2.25C9.6875 2.25 10 2.5625 10 2.875V19.125C10 19.4766 9.6875 19.75 9.375 19.75C9.02344 19.75 8.75 19.4766 8.75 19.125V2.875ZM12.5 2.875V19.125C12.5 19.4766 12.1875 19.75 11.875 19.75C11.5234 19.75 11.25 19.4766 11.25 19.125V2.875C11.25 2.5625 11.5234 2.25 11.875 2.25C12.1875 2.25 12.5 2.5625 12.5 2.875ZM15 2.875C15 2.5625 15.2734 2.25 15.625 2.25C15.9375 2.25 16.25 2.5625 16.25 2.875V19.125C16.25 19.4766 15.9375 19.75 15.625 19.75C15.2734 19.75 15 19.4766 15 19.125V2.875ZM20 2.875V19.125C20 19.4766 19.6875 19.75 19.375 19.75C19.0234 19.75 18.75 19.4766 18.75 19.125V2.875C18.75 2.5625 19.0234 2.25 19.375 2.25C19.6875 2.25 20 2.5625 20 2.875Z" fill="#222222"/>
</svg>
