<svg width="31" height="31" viewBox="0 0 31 31" fill="none" xmlns="http://www.w3.org/2000/svg">
    <path
        d="M19.2871 8.5C20.0684 8.5 20.7871 8.96875 21.0996 9.71875L22.4121 12.625C22.5371 12.875 22.5996 13.1562 22.5996 13.4375V20.5C22.5996 21.625 21.6934 22.5 20.5996 22.5H10.5996C9.47461 22.5 8.59961 21.625 8.59961 20.5V13.4375C8.59961 13.1562 8.63086 12.875 8.75586 12.625L10.0684 9.71875C10.3809 8.96875 11.0996 8.5 11.8809 8.5H19.2871ZM19.2871 9.5H16.0996V12.5H21.2559L20.1934 10.0938C20.0371 9.75 19.6934 9.5 19.2871 9.5ZM21.5996 13.5H9.59961V20.5C9.59961 21.0625 10.0371 21.5 10.5996 21.5H20.5996C21.1309 21.5 21.5996 21.0625 21.5996 20.5V13.5ZM9.91211 12.5H15.0996V9.5H11.8809C11.4746 9.5 11.1309 9.75 10.9746 10.0938L9.91211 12.5Z"
        fill="#222222" />
</svg>
