<svg width="31" height="31" viewBox="0 0 31 31" fill="none" xmlns="http://www.w3.org/2000/svg">
    <path
        d="M18.5996 18.7188C18.1621 18.9688 17.5059 18.7188 17.0059 18.8438C16.5371 18.9688 16.0996 19.5 15.5996 19.5C15.0684 19.5 14.6309 18.9688 14.1621 18.8438C13.6621 18.7188 13.0059 18.9688 12.5684 18.7188C12.1309 18.4688 12.0371 17.7812 11.6934 17.4062C11.3184 17.0625 10.6309 16.9375 10.3809 16.5312C10.1309 16.0938 10.3809 15.4375 10.2559 14.9375C10.1309 14.4688 9.59961 14.0312 9.59961 13.5C9.59961 13 10.1309 12.5625 10.2559 12.0938C10.3809 11.5938 10.1309 10.9375 10.3809 10.5C10.6309 10.0625 11.3184 9.96875 11.6934 9.625C12.0371 9.25 12.1621 8.5625 12.5684 8.3125C13.0059 8.0625 13.6621 8.3125 14.1621 8.1875C14.6309 8.0625 15.0684 7.5 15.5996 7.5C16.0996 7.5 16.5371 8.0625 16.9746 8.1875C17.4746 8.3125 18.1309 8.0625 18.5684 8.3125C19.0059 8.5625 19.0996 9.25 19.4746 9.625C19.8184 9.96875 20.5059 10.0625 20.7559 10.5C21.0059 10.9375 20.7559 11.5938 20.8809 12.0938C21.0059 12.5625 21.5684 13 21.5684 13.5C21.5684 14.0312 21.0371 14.4688 20.9121 14.9375C20.7871 15.4375 21.0371 16.0938 20.7871 16.5312C20.5371 16.9688 19.8496 17.0625 19.4746 17.4062C19.1309 17.7812 19.0059 18.4688 18.5996 18.7188ZM15.5684 18.5C15.8496 18.375 16.2246 18.0312 16.7559 17.875C17.2871 17.75 17.7871 17.8438 18.0684 17.8438C18.2246 17.5938 18.4121 17.0938 18.7871 16.7188C19.1621 16.3438 19.6621 16.1562 19.9121 16C19.9121 15.6875 19.8184 15.1875 19.9434 14.6875C20.0996 14.1562 20.4434 13.7812 20.5684 13.5312C20.4434 13.25 20.0996 12.875 19.9434 12.3438C19.8184 11.8125 19.9121 11.3125 19.9121 11.0312C19.6621 10.875 19.1621 10.6875 18.7871 10.3125C18.4121 9.9375 18.2246 9.4375 18.0684 9.1875C17.7871 9.1875 17.2871 9.28125 16.7559 9.15625C16.2246 9 15.8496 8.65625 15.5684 8.53125C15.3184 8.65625 14.9434 9 14.4121 9.15625C13.8809 9.28125 13.3809 9.1875 13.0996 9.1875C12.9434 9.4375 12.7559 9.9375 12.3809 10.3125C12.0059 10.6875 11.5059 10.875 11.2559 11.0312C11.2559 11.3125 11.3496 11.8125 11.2246 12.3438C11.0684 12.875 10.7246 13.25 10.5996 13.5312C10.7246 13.7812 11.0684 14.1562 11.2246 14.6875C11.3496 15.2188 11.2559 15.7188 11.2559 16C11.4746 16.1562 11.9746 16.3438 12.3496 16.7188C12.7246 17.0938 12.9121 17.5938 13.0684 17.8125C13.3496 17.8438 13.8496 17.75 14.3809 17.875C14.9121 18.0312 15.3184 18.375 15.5684 18.5ZM18.3184 13.5C18.3184 15.0312 17.0371 16.25 15.5684 16.25C14.0684 16.25 12.8496 15.0312 12.8496 13.5C12.8496 12 14.0996 10.75 15.5996 10.75C17.0684 10.75 18.3184 12 18.3184 13.5ZM15.5996 15.25C16.5371 15.25 17.3184 14.4688 17.3184 13.5C17.3184 12.5625 16.5059 11.75 15.5684 11.75C14.6309 11.75 13.8496 12.5625 13.8496 13.5C13.8496 14.4688 14.6309 15.25 15.5996 15.25ZM20.7559 19.0938L21.5059 21C21.6621 21.3438 21.5996 21.7812 21.3496 22.0625C21.0996 22.375 20.6934 22.5 20.3184 22.4375L19.6309 22.2812L19.3184 22.9375C19.1309 23.2812 18.7871 23.5 18.3809 23.5C17.9121 23.5 17.5684 23.25 17.4121 22.8438L16.6309 20.9375C16.5059 20.6875 16.6309 20.4062 16.8809 20.2812C17.1621 20.1875 17.4434 20.3125 17.5371 20.5625L18.3184 22.4688L19.0996 21.1562L20.5684 21.375L19.8184 19.4375C19.7246 19.1875 19.8496 18.9062 20.0996 18.8125C20.3496 18.6875 20.6621 18.8125 20.7559 19.0938ZM14.2871 20.2812C14.5371 20.4062 14.6621 20.6875 14.5371 20.9375L13.7559 22.8438C13.5996 23.25 13.2559 23.5 12.8184 23.5C12.3809 23.5 12.0371 23.2812 11.8496 22.9375L11.5371 22.2812L10.8496 22.4375C10.4746 22.5 10.0684 22.375 9.81836 22.0625C9.56836 21.7812 9.50586 21.3438 9.66211 21L10.4121 19.0938C10.5059 18.8125 10.8184 18.6875 11.0684 18.8125C11.3184 18.9062 11.4434 19.1875 11.3496 19.4375L10.5996 21.375L12.0684 21.1562L12.8496 22.4688L13.6309 20.5625C13.7246 20.3125 14.0059 20.1875 14.2871 20.2812Z"
        fill="#222222" />
</svg>
