<svg width="20" height="21" viewBox="0 0 20 21" fill="none" xmlns="http://www.w3.org/2000/svg">
<path d="M7.03125 7.57031C7.26562 7.33594 7.69531 7.33594 7.92969 7.57031L10 9.64062L12.0312 7.57031C12.2656 7.33594 12.6953 7.33594 12.9297 7.57031C13.1641 7.80469 13.1641 8.23438 12.9297 8.46875L10.8594 10.5L12.9297 12.5703C13.1641 12.8047 13.1641 13.2344 12.9297 13.4688C12.6953 13.7031 12.2656 13.7031 12.0312 13.4688L10 11.3984L7.92969 13.4688C7.69531 13.7031 7.26562 13.7031 7.03125 13.4688C6.79688 13.2344 6.79688 12.8047 7.03125 12.5703L9.10156 10.5L7.03125 8.46875C6.79688 8.23438 6.79688 7.80469 7.03125 7.57031ZM20 10.5C20 16.0469 15.5078 20.5 10 20.5C4.45312 20.5 0 16.0469 0 10.5C0 4.99219 4.45312 0.5 10 0.5C15.5078 0.5 20 4.99219 20 10.5ZM10 1.75C5.15625 1.75 1.25 5.69531 1.25 10.5C1.25 15.3438 5.15625 19.25 10 19.25C14.8047 19.25 18.75 15.3438 18.75 10.5C18.75 5.69531 14.8047 1.75 10 1.75Z" fill="#222222"/>
</svg>
