<svg width="17" height="17" viewBox="0 0 17 17" fill="none" xmlns="http://www.w3.org/2000/svg">
<path d="M5.64746 8.37695C5.64746 6.87695 6.86621 5.62695 8.39746 5.62695C9.89746 5.62695 11.1475 6.87695 11.1475 8.37695C11.1475 9.9082 9.89746 11.127 8.39746 11.127C6.86621 11.127 5.64746 9.9082 5.64746 8.37695ZM8.39746 6.62695C7.42871 6.62695 6.64746 7.43945 6.64746 8.37695C6.64746 9.3457 7.42871 10.127 8.39746 10.127C9.33496 10.127 10.1475 9.3457 10.1475 8.37695C10.1475 7.43945 9.33496 6.62695 8.39746 6.62695ZM2.42871 7.5957L1.17871 6.43945C0.834961 6.12695 0.741211 5.62695 0.991211 5.2207L1.92871 3.56445C2.14746 3.1582 2.64746 2.9707 3.08496 3.12695L4.70996 3.62695C5.14746 3.31445 5.61621 3.0332 6.08496 2.8457L6.45996 1.18945C6.55371 0.720703 6.95996 0.376953 7.42871 0.376953H9.33496C9.80371 0.376953 10.21 0.720703 10.3037 1.18945L10.6787 2.8457C11.1475 3.0332 11.6162 3.31445 12.0537 3.62695L13.6787 3.12695C14.1162 2.9707 14.6162 3.1582 14.835 3.56445L15.7725 5.2207C16.0225 5.62695 15.9287 6.12695 15.585 6.43945L14.335 7.5957C14.3662 7.8457 14.3975 8.12695 14.3975 8.37695C14.3975 8.6582 14.3662 8.93945 14.335 9.18945L15.585 10.3457C15.9287 10.6582 16.0225 11.1582 15.7725 11.5645L14.835 13.2207C14.6162 13.627 14.1162 13.8145 13.6787 13.6582L12.0537 13.1582C11.6162 13.4707 11.1475 13.7207 10.6787 13.9395L10.3037 15.5957C10.21 16.0645 9.80371 16.377 9.33496 16.377H7.42871C6.95996 16.377 6.55371 16.0645 6.45996 15.5957L6.08496 13.9395C5.61621 13.7207 5.14746 13.4707 4.70996 13.1582L3.08496 13.6582C2.64746 13.8145 2.14746 13.627 1.92871 13.2207L0.991211 11.5645C0.741211 11.1582 0.834961 10.6582 1.17871 10.3457L2.42871 9.18945C2.39746 8.93945 2.39746 8.6582 2.39746 8.37695C2.39746 8.12695 2.39746 7.8457 2.42871 7.5957ZM5.33496 4.43945L4.92871 4.75195L2.80371 4.06445L1.83496 5.7207L3.49121 7.2207L3.42871 7.7207C3.39746 7.93945 3.39746 8.1582 3.39746 8.37695C3.39746 8.62695 3.39746 8.8457 3.42871 9.06445L3.49121 9.56445L1.83496 11.0645L2.80371 12.7207L4.92871 12.0332L5.33496 12.3457C5.67871 12.627 6.05371 12.8457 6.49121 13.002L6.95996 13.2207L7.42871 15.377H9.33496L9.80371 13.2207L10.2725 13.002C10.71 12.8457 11.085 12.627 11.4287 12.3457L11.835 12.0332L13.96 12.7207L14.9287 11.0645L13.2725 9.56445L13.335 9.06445C13.3662 8.8457 13.3975 8.62695 13.3975 8.37695C13.3975 8.1582 13.3662 7.93945 13.335 7.7207L13.2725 7.2207L14.9287 5.7207L13.96 4.06445L11.835 4.75195L11.4287 4.43945C11.085 4.1582 10.71 3.93945 10.2725 3.75195L9.80371 3.56445L9.33496 1.37695H7.42871L6.95996 3.56445L6.49121 3.75195C6.05371 3.93945 5.67871 4.1582 5.33496 4.43945Z" fill="#222222"/>
</svg>
