<svg width="33" height="33" viewBox="0 0 33 33" fill="none" xmlns="http://www.w3.org/2000/svg">
    <path
        d="M8.70801 16.9932C6.87207 16.4463 5.58301 14.7666 5.58301 12.7744C5.58301 10.3916 7.53613 8.39941 9.95801 8.39941H17.458C18.4736 8.39941 19.333 9.25879 19.333 10.2744V15.2744C19.333 16.3291 18.4736 17.1494 17.458 17.1494H15.7783L11.208 24.9229C10.6611 25.8213 9.52832 26.1338 8.62988 25.5869L6.55957 24.376C5.66113 23.8291 5.34863 22.6963 5.89551 21.7979L8.70801 16.9932ZM6.83301 12.7744C6.83301 14.5322 8.2002 15.8994 9.95801 15.8994H17.458C17.7705 15.8994 18.083 15.626 18.083 15.2744V10.2744C18.083 9.96191 17.7705 9.64941 17.458 9.64941H9.95801C8.2002 9.64941 6.83301 11.0557 6.83301 12.7744ZM10.0361 17.1494L6.9502 22.4229C6.79395 22.7354 6.87207 23.126 7.18457 23.2822L9.25488 24.5322C9.56738 24.6885 9.95801 24.5713 10.1143 24.2979L14.333 17.1494H10.0361ZM27.458 8.39941C27.7705 8.39941 28.083 8.71191 28.083 9.02441C28.083 9.37598 27.7705 9.64941 27.458 9.64941H22.458C22.1064 9.64941 21.833 9.37598 21.833 9.02441C21.833 8.71191 22.1064 8.39941 22.458 8.39941H27.458ZM21.833 11.5244C21.833 11.2119 22.1064 10.8994 22.458 10.8994H27.458C27.7705 10.8994 28.083 11.2119 28.083 11.5244C28.083 11.876 27.7705 12.1494 27.458 12.1494H22.458C22.1064 12.1494 21.833 11.876 21.833 11.5244ZM27.458 14.6494C27.7705 14.6494 28.083 14.9619 28.083 15.2744C28.083 15.626 27.7705 15.8994 27.458 15.8994H22.458C22.1064 15.8994 21.833 15.626 21.833 15.2744C21.833 14.9619 22.1064 14.6494 22.458 14.6494H27.458ZM21.833 17.7744C21.833 17.4619 22.1064 17.1494 22.458 17.1494H27.458C27.7705 17.1494 28.083 17.4619 28.083 17.7744C28.083 18.126 27.7705 18.3994 27.458 18.3994H22.458C22.1064 18.3994 21.833 18.126 21.833 17.7744ZM27.458 19.6494C27.7705 19.6494 28.083 19.9619 28.083 20.2744C28.083 20.626 27.7705 20.8994 27.458 20.8994H22.458C22.1064 20.8994 21.833 20.626 21.833 20.2744C21.833 19.9619 22.1064 19.6494 22.458 19.6494H27.458ZM21.833 25.2744C21.833 24.9619 22.1064 24.6494 22.458 24.6494H27.458C27.7705 24.6494 28.083 24.9619 28.083 25.2744C28.083 25.626 27.7705 25.8994 27.458 25.8994H22.458C22.1064 25.8994 21.833 25.626 21.833 25.2744Z"
        fill="#222222" />
</svg>
