<svg width="21" height="19" viewBox="0 0 21 19" fill="none" xmlns="http://www.w3.org/2000/svg">
<path d="M0.599609 2.3125C0.599609 1.45312 1.26367 0.75 2.12305 0.75H19.0371C19.8965 0.75 20.5996 1.45312 20.5996 2.3125C20.5996 2.66406 20.4434 3.01562 20.209 3.28906L13.0996 11.9219V16.9609C13.0996 17.6641 12.4746 18.25 11.7715 18.25C11.459 18.25 11.1855 18.1719 10.9512 17.9766L8.56836 16.1406C8.25586 15.9062 8.09961 15.5547 8.09961 15.1641V11.9219L0.951172 3.28906C0.716797 3.01562 0.599609 2.66406 0.599609 2.3125ZM2.12305 2C1.9668 2 1.84961 2.15625 1.84961 2.3125C1.84961 2.39062 1.84961 2.42969 1.88867 2.50781L9.19336 11.2969C9.27148 11.4141 9.34961 11.5703 9.34961 11.6875V15.1641L11.6934 17C11.7324 17 11.7324 17 11.7715 17C11.8105 17 11.8496 17 11.8496 16.9609V11.6875C11.8496 11.5703 11.8887 11.4141 11.9668 11.2969L19.2715 2.50781C19.3105 2.42969 19.3496 2.39062 19.3496 2.3125C19.3496 2.15625 19.1934 2 19.0371 2H2.12305Z" fill="#707070"/>
</svg>
