<svg width="21" height="21" viewBox="0 0 21 21" fill="none" xmlns="http://www.w3.org/2000/svg">
<path d="M13.3975 7.37695C13.6475 7.37695 13.8975 7.62695 13.8975 7.87695C13.8975 8.1582 13.6475 8.37695 13.3975 8.37695H7.39746C7.11621 8.37695 6.89746 8.1582 6.89746 7.87695C6.89746 7.62695 7.11621 7.37695 7.39746 7.37695L13.3975 7.37695ZM6.89746 13.877C6.89746 13.627 7.11621 13.377 7.39746 13.377H13.3975C13.6475 13.377 13.8975 13.627 13.8975 13.877C13.8975 14.1582 13.6475 14.377 13.3975 14.377H7.39746C7.11621 14.377 6.89746 14.1582 6.89746 13.877ZM13.3975 10.377C13.6475 10.377 13.8975 10.627 13.8975 10.877C13.8975 11.1582 13.6475 11.377 13.3975 11.377H7.39746C7.11621 11.377 6.89746 11.1582 6.89746 10.877C6.89746 10.627 7.11621 10.377 7.39746 10.377H13.3975ZM6.86621 4.4707L8.27246 3.0332C8.45996 2.8457 8.80371 2.8457 8.99121 3.0332L10.3975 4.43945L11.7725 3.0332C11.96 2.8457 12.3037 2.8457 12.4912 3.0332L13.8975 4.4707L15.5537 3.00195C15.71 2.87695 15.8975 2.8457 16.085 2.93945C16.2725 3.0332 16.3975 3.18945 16.3975 3.37695V18.377C16.3975 18.5957 16.2725 18.752 16.085 18.8457C15.8975 18.9395 15.71 18.9082 15.5537 18.752L13.8975 17.3145L12.4912 18.752C12.3037 18.9395 11.96 18.9395 11.7725 18.752L10.3975 17.3457L8.99121 18.752C8.80371 18.9395 8.45996 18.9395 8.27246 18.752L6.86621 17.3145L5.20996 18.752C5.05371 18.9082 4.86621 18.9395 4.67871 18.8457C4.49121 18.752 4.39746 18.5957 4.39746 18.377L4.39746 3.37695C4.39746 3.18945 4.49121 3.0332 4.67871 2.93945C4.86621 2.8457 5.05371 2.87695 5.20996 3.00195L6.86621 4.4707ZM6.55371 16.252C6.74121 16.0957 7.05371 16.0957 7.24121 16.2832L8.64746 17.6895L10.0225 16.2832C10.21 16.0957 10.5537 16.0957 10.7412 16.2832L12.1475 17.6895L13.5225 16.2832C13.71 16.0957 14.0225 16.0957 14.21 16.252L15.3975 17.2832V4.50195L14.21 5.5332C14.0225 5.68945 13.71 5.68945 13.5225 5.50195L12.1475 4.0957L10.7412 5.50195C10.5537 5.68945 10.21 5.68945 10.0225 5.50195L8.64746 4.0957L7.24121 5.50195C7.05371 5.68945 6.74121 5.68945 6.55371 5.5332L5.39746 4.50195L5.39746 17.2832L6.55371 16.252Z" fill="#222222"/>
</svg>
