<svg width="21" height="21" viewBox="0 0 21 21" fill="none" xmlns="http://www.w3.org/2000/svg">
<path d="M14.085 3.87695C14.8662 3.87695 15.585 4.3457 15.8975 5.0957L17.21 8.00195C17.335 8.25195 17.3975 8.5332 17.3975 8.81445V15.877C17.3975 17.002 16.4912 17.877 15.3975 17.877H5.39746C4.27246 17.877 3.39746 17.002 3.39746 15.877V8.81445C3.39746 8.5332 3.42871 8.25195 3.55371 8.00195L4.86621 5.0957C5.17871 4.3457 5.89746 3.87695 6.67871 3.87695H14.085ZM14.085 4.87695H10.8975V7.87695H16.0537L14.9912 5.4707C14.835 5.12695 14.4912 4.87695 14.085 4.87695ZM16.3975 8.87695H4.39746V15.877C4.39746 16.4395 4.83496 16.877 5.39746 16.877H15.3975C15.9287 16.877 16.3975 16.4395 16.3975 15.877V8.87695ZM4.70996 7.87695H9.89746V4.87695H6.67871C6.27246 4.87695 5.92871 5.12695 5.77246 5.4707L4.70996 7.87695Z" fill="#222222"/>
</svg>
