<svg width="21" height="21" viewBox="0 0 21 21" fill="none" xmlns="http://www.w3.org/2000/svg">
<path d="M2.39746 5.87695C2.39746 4.7832 3.27246 3.87695 4.39746 3.87695H16.3975C17.4912 3.87695 18.3975 4.7832 18.3975 5.87695V15.877C18.3975 17.002 17.4912 17.877 16.3975 17.877H4.39746C3.27246 17.877 2.39746 17.002 2.39746 15.877V5.87695ZM7.39746 6.87695H17.3975V5.87695C17.3975 5.3457 16.9287 4.87695 16.3975 4.87695H7.39746V6.87695ZM6.39746 4.87695H4.39746C3.83496 4.87695 3.39746 5.3457 3.39746 5.87695V6.87695H6.39746V4.87695ZM3.39746 7.87695V15.877C3.39746 16.4395 3.83496 16.877 4.39746 16.877H16.3975C16.9287 16.877 17.3975 16.4395 17.3975 15.877V7.87695H3.39746Z" fill="#222222"/>
</svg>
