<svg width="21" height="21" viewBox="0 0 21 21" fill="none" xmlns="http://www.w3.org/2000/svg">
<path d="M3.39746 5.37695C3.39746 4.56445 4.05371 3.87695 4.89746 3.87695H7.89746C8.70996 3.87695 9.39746 4.56445 9.39746 5.37695V8.37695C9.39746 9.2207 8.70996 9.87695 7.89746 9.87695H4.89746C4.05371 9.87695 3.39746 9.2207 3.39746 8.37695V5.37695ZM4.39746 5.37695V8.37695C4.39746 8.6582 4.61621 8.87695 4.89746 8.87695H7.89746C8.14746 8.87695 8.39746 8.6582 8.39746 8.37695V5.37695C8.39746 5.12695 8.14746 4.87695 7.89746 4.87695H4.89746C4.61621 4.87695 4.39746 5.12695 4.39746 5.37695ZM3.39746 13.377C3.39746 12.5645 4.05371 11.877 4.89746 11.877H7.89746C8.70996 11.877 9.39746 12.5645 9.39746 13.377V16.377C9.39746 17.2207 8.70996 17.877 7.89746 17.877H4.89746C4.05371 17.877 3.39746 17.2207 3.39746 16.377V13.377ZM4.39746 13.377V16.377C4.39746 16.6582 4.61621 16.877 4.89746 16.877H7.89746C8.14746 16.877 8.39746 16.6582 8.39746 16.377V13.377C8.39746 13.127 8.14746 12.877 7.89746 12.877H4.89746C4.61621 12.877 4.39746 13.127 4.39746 13.377ZM15.8975 3.87695C16.71 3.87695 17.3975 4.56445 17.3975 5.37695V8.37695C17.3975 9.2207 16.71 9.87695 15.8975 9.87695H12.8975C12.0537 9.87695 11.3975 9.2207 11.3975 8.37695V5.37695C11.3975 4.56445 12.0537 3.87695 12.8975 3.87695H15.8975ZM15.8975 4.87695H12.8975C12.6162 4.87695 12.3975 5.12695 12.3975 5.37695V8.37695C12.3975 8.6582 12.6162 8.87695 12.8975 8.87695H15.8975C16.1475 8.87695 16.3975 8.6582 16.3975 8.37695V5.37695C16.3975 5.12695 16.1475 4.87695 15.8975 4.87695ZM11.3975 13.377C11.3975 12.5645 12.0537 11.877 12.8975 11.877H15.8975C16.71 11.877 17.3975 12.5645 17.3975 13.377V16.377C17.3975 17.2207 16.71 17.877 15.8975 17.877H12.8975C12.0537 17.877 11.3975 17.2207 11.3975 16.377V13.377ZM12.3975 13.377V16.377C12.3975 16.6582 12.6162 16.877 12.8975 16.877H15.8975C16.1475 16.877 16.3975 16.6582 16.3975 16.377V13.377C16.3975 13.127 16.1475 12.877 15.8975 12.877H12.8975C12.6162 12.877 12.3975 13.127 12.3975 13.377Z" fill="#222222"/>
</svg>
