<svg width="21" height="21" viewBox="0 0 21 21" fill="none" xmlns="http://www.w3.org/2000/svg">
<path d="M15.9053 11.877C16.1553 11.877 16.4053 12.127 16.4053 12.377C16.4053 12.6582 16.1553 12.877 15.9053 12.877H9.90527C9.62402 12.877 9.40527 12.6582 9.40527 12.377C9.40527 12.127 9.62402 11.877 9.90527 11.877H15.9053ZM9.40527 9.37695C9.40527 9.12695 9.62402 8.87695 9.90527 8.87695H15.9053C16.1553 8.87695 16.4053 9.12695 16.4053 9.37695C16.4053 9.6582 16.1553 9.87695 15.9053 9.87695H9.90527C9.62402 9.87695 9.40527 9.6582 9.40527 9.37695ZM6.37402 8.18945C6.56152 8.2207 6.96777 8.31445 7.15527 8.3457C7.40527 8.4082 7.56152 8.68945 7.49902 8.9707C7.43652 9.2207 7.15527 9.37695 6.87402 9.31445C6.74902 9.2832 6.34277 9.18945 6.18652 9.1582C5.78027 9.0957 5.46777 9.1582 5.21777 9.25195C4.99902 9.37695 4.90527 9.50195 4.90527 9.5957C4.87402 9.75195 4.90527 9.81445 4.90527 9.8457C4.93652 9.87695 4.96777 9.93945 5.06152 10.002C5.28027 10.1582 5.59277 10.252 6.03027 10.377H6.06152C6.43652 10.502 6.93652 10.6582 7.28027 10.9082C7.49902 11.0645 7.65527 11.252 7.78027 11.502C7.90527 11.752 7.90527 12.0332 7.87402 12.3457C7.78027 12.877 7.40527 13.252 6.93652 13.4707C6.78027 13.5332 6.59277 13.5957 6.40527 13.627V13.877C6.40527 14.1582 6.15527 14.377 5.90527 14.377C5.62402 14.377 5.40527 14.1582 5.40527 13.877L5.40527 13.5957C5.09277 13.5332 4.65527 13.377 4.37402 13.2832C4.31152 13.2832 4.28027 13.252 4.21777 13.252C3.96777 13.1582 3.84277 12.877 3.90527 12.5957C3.99902 12.3457 4.28027 12.1895 4.56152 12.2832C4.59277 12.3145 4.68652 12.3457 4.74902 12.3457C5.03027 12.4707 5.37402 12.5645 5.59277 12.5957C5.99902 12.6895 6.34277 12.627 6.56152 12.5332C6.74902 12.4395 6.84277 12.3457 6.87402 12.1582C6.90527 12.0332 6.87402 11.9395 6.87402 11.9082C6.84277 11.8457 6.78027 11.7832 6.71777 11.7207C6.49902 11.5645 6.18652 11.4707 5.74902 11.3457L5.68652 11.3145C5.31152 11.1895 4.84277 11.0645 4.49902 10.8145C4.31152 10.6895 4.12402 10.502 3.99902 10.2832C3.90527 10.002 3.87402 9.7207 3.90527 9.43945C3.99902 8.9082 4.37402 8.56445 4.81152 8.3457C4.99902 8.2832 5.18652 8.2207 5.40527 8.18945V7.87695C5.40527 7.62695 5.62402 7.37695 5.90527 7.37695C6.15527 7.37695 6.40527 7.62695 6.40527 7.87695L6.37402 8.18945ZM1.40527 6.87695C1.40527 5.7832 2.28027 4.87695 3.40527 4.87695L17.4053 4.87695C18.499 4.87695 19.4053 5.7832 19.4053 6.87695V14.877C19.4053 16.002 18.499 16.877 17.4053 16.877H3.40527C2.28027 16.877 1.40527 16.002 1.40527 14.877L1.40527 6.87695ZM2.40527 6.87695L2.40527 14.877C2.40527 15.4395 2.84277 15.877 3.40527 15.877L17.4053 15.877C17.9365 15.877 18.4053 15.4395 18.4053 14.877V6.87695C18.4053 6.3457 17.9365 5.87695 17.4053 5.87695L3.40527 5.87695C2.84277 5.87695 2.40527 6.3457 2.40527 6.87695Z" fill="#222222"/>
</svg>
