<svg width="13" height="17" viewBox="0 0 13 17" fill="none" xmlns="http://www.w3.org/2000/svg">
<path d="M12.3975 14.877C12.3975 16.002 11.4912 16.877 10.3975 16.877H2.39746C1.27246 16.877 0.397461 16.002 0.397461 14.877H1.39746C1.39746 15.4395 1.83496 15.877 2.39746 15.877H10.3975C10.9287 15.877 11.3975 15.4395 11.3975 14.877H12.3975ZM7.89746 6.87695C7.05371 6.87695 6.39746 6.2207 6.39746 5.37695V1.87695L2.39746 1.87695C1.83496 1.87695 1.39746 2.3457 1.39746 2.87695L1.39746 7.87695H0.397461L0.397461 2.87695C0.397461 1.7832 1.27246 0.876953 2.39746 0.876953L7.27246 0.876953C7.64746 0.876953 8.05371 1.06445 8.33496 1.3457L11.9287 4.93945C12.21 5.2207 12.3975 5.62695 12.3975 6.00195V7.87695H11.3975V6.87695H7.89746ZM11.2412 5.6582L7.61621 2.0332C7.55371 1.9707 7.45996 1.93945 7.39746 1.9082V5.37695C7.39746 5.6582 7.61621 5.87695 7.89746 5.87695H11.3662C11.335 5.81445 11.3037 5.7207 11.2412 5.6582ZM3.14746 8.87695C4.08496 8.87695 4.89746 9.68945 4.89746 10.627C4.89746 11.5957 4.08496 12.377 3.14746 12.377H2.89746V13.377C2.89746 13.6582 2.64746 13.877 2.39746 13.877C2.11621 13.877 1.89746 13.6582 1.89746 13.377L1.89746 9.37695C1.89746 9.12695 2.11621 8.87695 2.39746 8.87695H3.14746ZM3.89746 10.627C3.89746 10.2207 3.55371 9.87695 3.14746 9.87695H2.89746V11.377H3.14746C3.55371 11.377 3.89746 11.0645 3.89746 10.627ZM5.39746 9.37695C5.39746 9.12695 5.61621 8.87695 5.89746 8.87695H6.64746C7.45996 8.87695 8.14746 9.56445 8.14746 10.377V12.377C8.14746 13.2207 7.45996 13.877 6.64746 13.877H5.89746C5.61621 13.877 5.39746 13.6582 5.39746 13.377V9.37695ZM6.39746 12.877H6.64746C6.89746 12.877 7.14746 12.6582 7.14746 12.377V10.377C7.14746 10.127 6.89746 9.87695 6.64746 9.87695H6.39746V12.877ZM10.8975 8.87695C11.1475 8.87695 11.3975 9.12695 11.3975 9.37695C11.3975 9.6582 11.1475 9.87695 10.8975 9.87695H9.89746V10.877H10.8975C11.1475 10.877 11.3975 11.127 11.3975 11.377C11.3975 11.6582 11.1475 11.877 10.8975 11.877H9.89746V13.377C9.89746 13.6582 9.64746 13.877 9.39746 13.877C9.11621 13.877 8.89746 13.6582 8.89746 13.377V9.37695C8.89746 9.12695 9.11621 8.87695 9.39746 8.87695H10.8975Z" fill="#222222"/>
</svg>
