<svg width="19" height="17" viewBox="0 0 19 17" fill="none" xmlns="http://www.w3.org/2000/svg">
<path d="M7.89746 5.37695C7.89746 5.12695 8.11621 4.87695 8.39746 4.87695H9.89746V3.37695C9.89746 3.12695 10.1162 2.87695 10.3975 2.87695C10.6475 2.87695 10.8975 3.12695 10.8975 3.37695V4.87695H12.3975C12.6475 4.87695 12.8975 5.12695 12.8975 5.37695C12.8975 5.6582 12.6475 5.87695 12.3975 5.87695H10.8975V7.37695C10.8975 7.6582 10.6475 7.87695 10.3975 7.87695C10.1162 7.87695 9.89746 7.6582 9.89746 7.37695V5.87695H8.39746C8.11621 5.87695 7.89746 5.6582 7.89746 5.37695ZM2.89746 0.376953C3.11621 0.376953 3.30371 0.564453 3.36621 0.783203L3.52246 1.37695H17.3037C17.96 1.37695 18.46 2.0332 18.2725 2.6582L16.585 8.6582C16.46 9.0957 16.085 9.37695 15.6162 9.37695H5.33496L5.77246 11.377H15.8975C16.1475 11.377 16.3975 11.627 16.3975 11.877C16.3975 12.1582 16.1475 12.377 15.8975 12.377H5.39746C5.14746 12.377 4.95996 12.2207 4.89746 12.002L2.49121 1.37695H0.897461C0.616211 1.37695 0.397461 1.1582 0.397461 0.876953C0.397461 0.626953 0.616211 0.376953 0.897461 0.376953H2.89746ZM3.74121 2.37695L5.08496 8.37695H15.6162L17.3037 2.37695H3.74121ZM4.39746 14.627C4.39746 13.6895 5.17871 12.877 6.14746 12.877C7.08496 12.877 7.89746 13.6895 7.89746 14.627C7.89746 15.5957 7.08496 16.377 6.14746 16.377C5.17871 16.377 4.39746 15.5957 4.39746 14.627ZM6.14746 15.377C6.55371 15.377 6.89746 15.0645 6.89746 14.627C6.89746 14.2207 6.55371 13.877 6.14746 13.877C5.70996 13.877 5.39746 14.2207 5.39746 14.627C5.39746 15.0645 5.70996 15.377 6.14746 15.377ZM16.3975 14.627C16.3975 15.5957 15.585 16.377 14.6475 16.377C13.6787 16.377 12.8975 15.5957 12.8975 14.627C12.8975 13.6895 13.6787 12.877 14.6475 12.877C15.585 12.877 16.3975 13.6895 16.3975 14.627ZM14.6475 13.877C14.21 13.877 13.8975 14.2207 13.8975 14.627C13.8975 15.0645 14.21 15.377 14.6475 15.377C15.0537 15.377 15.3975 15.0645 15.3975 14.627C15.3975 14.2207 15.0537 13.877 14.6475 13.877Z" fill="#222222"/>
</svg>
