<svg width="17" height="15" viewBox="0 0 17 15" fill="none" xmlns="http://www.w3.org/2000/svg">
<path d="M8.40527 11.127C8.81152 11.127 9.15527 11.4707 9.12402 11.877C9.12402 12.3145 8.81152 12.627 8.40527 12.627C7.99902 12.627 7.65527 12.3145 7.65527 11.877C7.65527 11.4707 7.96777 11.127 8.40527 11.127ZM8.40527 9.87695C8.12402 9.87695 7.90527 9.6582 7.90527 9.37695L7.90527 4.87695C7.90527 4.62695 8.15527 4.37695 8.40527 4.37695C8.62402 4.37695 8.87402 4.62695 8.87402 4.87695V9.37695C8.87402 9.6582 8.65527 9.87695 8.40527 9.87695ZM16.1553 12.3145C16.4678 12.8457 16.4678 13.4707 16.1553 14.002C15.8428 14.5645 15.2803 14.877 14.6553 14.877H2.15527C1.49902 14.877 0.936523 14.5645 0.624023 14.002C0.311523 13.4707 0.311523 12.8457 0.624023 12.3145L6.87402 1.75195C7.18652 1.2207 7.74902 0.876953 8.40527 0.876953C9.03027 0.908203 9.59277 1.2207 9.90527 1.75195L16.1553 12.3145ZM15.2803 13.502C15.4365 13.2832 15.4053 13.0332 15.2803 12.8145L9.03027 2.25195C8.90527 2.0332 8.65527 1.9082 8.40527 1.87695C8.37402 1.87695 8.40527 1.87695 8.40527 1.87695C8.12402 1.87695 7.87402 2.0332 7.74902 2.25195L1.49902 12.8145C1.37402 13.0332 1.34277 13.2832 1.49902 13.502C1.62402 13.752 1.87402 13.877 2.15527 13.877H14.624C14.9053 13.877 15.1553 13.752 15.2803 13.502Z" fill="#222222"/>
</svg>
