<svg width="17" height="17" viewBox="0 0 17 17" fill="none" xmlns="http://www.w3.org/2000/svg">
<path d="M14.9072 2.2168C15.1572 2.2168 15.4072 2.4668 15.4072 2.7168C15.4072 2.99805 15.1572 3.2168 14.9072 3.2168H14.3135L13.5322 14.373C13.4385 15.4355 12.5635 16.2168 11.5322 16.2168H5.25098C4.21973 16.2168 3.34473 15.4355 3.25098 14.373L2.46973 3.2168H1.90723C1.62598 3.2168 1.40723 2.99805 1.40723 2.7168C1.40723 2.4668 1.62598 2.2168 1.90723 2.2168H4.87598L5.68848 0.935547C5.93848 0.498047 6.43848 0.216797 6.93848 0.216797H9.84473C10.3447 0.216797 10.8447 0.498047 11.0947 0.935547L11.9072 2.2168H14.9072ZM6.93848 1.2168C6.78223 1.2168 6.62598 1.31055 6.53223 1.4668L6.03223 2.2168H10.751L10.251 1.4668C10.1572 1.31055 10.001 1.2168 9.84473 1.2168H6.93848ZM13.3135 3.2168H3.46973L4.25098 14.3105C4.28223 14.8105 4.71973 15.2168 5.25098 15.2168H11.5322C12.0635 15.2168 12.501 14.8105 12.5322 14.3105L13.3135 3.2168Z" fill="#707070"/>
</svg>
