<svg width="40" height="40" viewBox="0 0 40 40" fill="none" xmlns="http://www.w3.org/2000/svg">
<rect width="40" height="40" rx="20" fill="#F5F5F5"/>
<path d="M25.4062 15.9375C25.7812 16.3125 26 16.8125 26 17.3438V26C26 27.125 25.0938 28 24 28H16C14.875 28 14 27.125 14 26V14C14 12.9062 14.875 12 16 12H20.6562C21.1875 12 21.6875 12.2188 22.0625 12.5938L25.4062 15.9375ZM21 13.0938V16.5C21 16.7812 21.2188 17 21.5 17H24.9062C24.875 16.875 24.8125 16.75 24.6875 16.625L21.375 13.3125C21.25 13.1875 21.125 13.125 21 13.0938ZM25 26V18H21.5C20.6562 18 20 17.3438 20 16.5V13H16C15.4375 13 15 13.4688 15 14V26C15 26.5625 15.4375 27 16 27H24C24.5312 27 25 26.5625 25 26ZM21 19.5V21H22.5C22.75 21 23 21.25 23 21.5V22.5625C23 22.8125 22.75 23.0312 22.5 23.0312H21V24.5C21 24.7812 20.75 25 20.5 25H19.5C19.2188 25 19 24.7812 19 24.4688V23H17.5C17.2188 23 17 22.7812 17 22.5V21.5C17 21.25 17.2188 21 17.5 21H19V19.5C19 19.25 19.2188 19 19.5 19H20.5C20.75 19 21 19.25 21 19.5Z" fill="#222222"/>
</svg>
