<svg width="41" height="41" viewBox="0 0 41 41" fill="none" xmlns="http://www.w3.org/2000/svg">
<rect x="0.814453" y="0.716797" width="40" height="40" rx="20" fill="#F5F5F5"/>
<path d="M14.8145 12.7168C15.1582 12.7168 15.4707 12.998 15.5332 13.3418L16.8457 20.2168H26.7207L28.0645 15.2168H26.5645C26.127 15.2168 25.8145 14.9043 25.8145 14.4668C25.8145 14.0605 26.127 13.7168 26.5645 13.7168H29.0645C29.2832 13.7168 29.502 13.8418 29.6582 14.0293C29.7832 14.2168 29.8457 14.4668 29.7832 14.6855L28.0332 21.1855C27.9395 21.498 27.627 21.7168 27.3145 21.7168H17.127L17.4082 23.2168H27.0645C27.4707 23.2168 27.8145 23.5605 27.8145 23.9668C27.8145 24.4043 27.4707 24.7168 27.0645 24.7168H16.7832C16.4395 24.7168 16.127 24.4668 16.0645 24.123L14.1895 14.2168H12.5645C12.127 14.2168 11.8145 13.9043 11.8145 13.4668C11.8145 13.0605 12.127 12.7168 12.5645 12.7168H14.8145ZM15.8145 27.2168C15.8145 26.4043 16.4707 25.7168 17.3145 25.7168C18.127 25.7168 18.8145 26.4043 18.8145 27.2168C18.8145 28.0605 18.127 28.7168 17.3145 28.7168C16.4707 28.7168 15.8145 28.0605 15.8145 27.2168ZM27.8145 27.2168C27.8145 28.0605 27.127 28.7168 26.3145 28.7168C25.4707 28.7168 24.8145 28.0605 24.8145 27.2168C24.8145 26.4043 25.4707 25.7168 26.3145 25.7168C27.127 25.7168 27.8145 26.4043 27.8145 27.2168ZM19.0645 16.7168C19.0645 16.3105 19.377 15.9668 19.8145 15.9668H21.0645V14.7168C21.0645 14.3105 21.377 13.9668 21.8145 13.9668C22.2207 13.9668 22.5645 14.3105 22.5645 14.7168V15.9668H23.8145C24.2207 15.9668 24.5645 16.3105 24.5645 16.7168C24.5645 17.1543 24.2207 17.4668 23.8145 17.4668H22.5645V18.7168C22.5645 19.1543 22.2207 19.4668 21.8145 19.4668C21.377 19.4668 21.0645 19.1543 21.0645 18.7168V17.4668H19.8145C19.377 17.4668 19.0645 17.1543 19.0645 16.7168Z" fill="#222222"/>
</svg>
