<svg width="24" height="24" viewBox="0 0 24 24" fill="none" xmlns="http://www.w3.org/2000/svg">
<rect width="24" height="24" rx="12" fill="#F5F5F5"/>
<path d="M7.5 6.5C7.75781 6.5 7.99219 6.71094 8.03906 6.96875L9.02344 12.125H16.4297L17.4375 8.375H16.3125C15.9844 8.375 15.75 8.14062 15.75 7.8125C15.75 7.50781 15.9844 7.25 16.3125 7.25H18.1875C18.3516 7.25 18.5156 7.34375 18.6328 7.48438C18.7266 7.625 18.7734 7.8125 18.7266 7.97656L17.4141 12.8516C17.3438 13.0859 17.1094 13.25 16.875 13.25H9.23438L9.44531 14.375H16.6875C16.9922 14.375 17.25 14.6328 17.25 14.9375C17.25 15.2656 16.9922 15.5 16.6875 15.5H8.97656C8.71875 15.5 8.48438 15.3125 8.4375 15.0547L7.03125 7.625H5.8125C5.48438 7.625 5.25 7.39062 5.25 7.0625C5.25 6.75781 5.48438 6.5 5.8125 6.5H7.5ZM8.25 17.375C8.25 16.7656 8.74219 16.25 9.375 16.25C9.98438 16.25 10.5 16.7656 10.5 17.375C10.5 18.0078 9.98438 18.5 9.375 18.5C8.74219 18.5 8.25 18.0078 8.25 17.375ZM17.25 17.375C17.25 18.0078 16.7344 18.5 16.125 18.5C15.4922 18.5 15 18.0078 15 17.375C15 16.7656 15.4922 16.25 16.125 16.25C16.7344 16.25 17.25 16.7656 17.25 17.375ZM10.6875 9.5C10.6875 9.19531 10.9219 8.9375 11.25 8.9375H12.1875V8C12.1875 7.69531 12.4219 7.4375 12.75 7.4375C13.0547 7.4375 13.3125 7.69531 13.3125 8V8.9375H14.25C14.5547 8.9375 14.8125 9.19531 14.8125 9.5C14.8125 9.82812 14.5547 10.0625 14.25 10.0625H13.3125V11C13.3125 11.3281 13.0547 11.5625 12.75 11.5625C12.4219 11.5625 12.1875 11.3281 12.1875 11V10.0625H11.25C10.9219 10.0625 10.6875 9.82812 10.6875 9.5Z" fill="#222222"/>
</svg>
